<mxfile host="app.diagrams.net" modified="2023-05-23T12:29:23.659Z" agent="Mozilla/5.0 (Windows NT 10.0; Win64; x64) AppleWebKit/537.36 (KHTML, like Gecko) Chrome/113.0.0.0 Safari/537.36" etag="fkTOA1dKD9eI2ZdUqa3a" version="21.3.2" type="github" pages="3">
  <diagram name="EspaÃ±a" id="WiafbRLkVoVtlF4otcqc">
    <mxGraphModel dx="1434" dy="788" grid="1" gridSize="10" guides="1" tooltips="1" connect="1" arrows="1" fold="1" page="1" pageScale="1" pageWidth="850" pageHeight="1100" math="0" shadow="0">
      <root>
        <mxCell id="0" />
        <mxCell id="1" parent="0" />
        <mxCell id="bblidsnoTC9VEnLcH5_G-1" value="&lt;blockquote style=&quot;text-indent: -18pt;&quot;&gt;&lt;font style=&quot;font-size: 12px;&quot;&gt;t_ed_h_facts&lt;/font&gt;&lt;/blockquote&gt;" style="rounded=0;whiteSpace=wrap;html=1;fontFamily=Times New Roman;align=center;fillColor=#fff2cc;strokeColor=#d6b656;" vertex="1" parent="1">
          <mxGeometry x="20" y="30" width="140" height="60" as="geometry" />
        </mxCell>
        <mxCell id="bblidsnoTC9VEnLcH5_G-21" value="tmp_tlcodfa_facturas_esp_desvios" style="rounded=0;whiteSpace=wrap;html=1;fillColor=#f8cecc;strokeColor=#b85450;fontFamily=Times New Roman;fontSize=10;" vertex="1" parent="1">
          <mxGeometry y="140" width="180" height="60" as="geometry" />
        </mxCell>
        <mxCell id="bblidsnoTC9VEnLcH5_G-23" value="" style="endArrow=classic;html=1;rounded=0;entryX=0.5;entryY=0;entryDx=0;entryDy=0;exitX=0.5;exitY=1;exitDx=0;exitDy=0;" edge="1" parent="1" source="bblidsnoTC9VEnLcH5_G-1" target="bblidsnoTC9VEnLcH5_G-21">
          <mxGeometry width="50" height="50" relative="1" as="geometry">
            <mxPoint x="400" y="20" as="sourcePoint" />
            <mxPoint x="450" y="-30" as="targetPoint" />
          </mxGeometry>
        </mxCell>
        <mxCell id="bblidsnoTC9VEnLcH5_G-71" value="" style="edgeStyle=orthogonalEdgeStyle;rounded=0;orthogonalLoop=1;jettySize=auto;html=1;" edge="1" parent="1" source="bblidsnoTC9VEnLcH5_G-24" target="bblidsnoTC9VEnLcH5_G-70">
          <mxGeometry relative="1" as="geometry" />
        </mxCell>
        <mxCell id="bblidsnoTC9VEnLcH5_G-24" value="tmp_tlcodfa_facturas_esp_desvios" style="rounded=0;whiteSpace=wrap;html=1;fillColor=#f8cecc;strokeColor=#b85450;verticalAlign=middle;fontSize=9;" vertex="1" parent="1">
          <mxGeometry y="260" width="180" height="60" as="geometry" />
        </mxCell>
        <mxCell id="bblidsnoTC9VEnLcH5_G-58" style="edgeStyle=orthogonalEdgeStyle;rounded=0;orthogonalLoop=1;jettySize=auto;html=1;entryX=0.5;entryY=0;entryDx=0;entryDy=0;" edge="1" parent="1" source="bblidsnoTC9VEnLcH5_G-25" target="bblidsnoTC9VEnLcH5_G-24">
          <mxGeometry relative="1" as="geometry" />
        </mxCell>
        <mxCell id="bblidsnoTC9VEnLcH5_G-25" value="ods_ml_t1codfa" style="rounded=0;whiteSpace=wrap;html=1;fillColor=#dae8fc;strokeColor=#6c8ebf;fontSize=10;" vertex="1" parent="1">
          <mxGeometry x="200" y="200" width="140" height="60" as="geometry" />
        </mxCell>
        <mxCell id="bblidsnoTC9VEnLcH5_G-119" style="edgeStyle=orthogonalEdgeStyle;rounded=0;orthogonalLoop=1;jettySize=auto;html=1;exitX=0;exitY=0.5;exitDx=0;exitDy=0;entryX=1;entryY=0.5;entryDx=0;entryDy=0;" edge="1" parent="1" source="bblidsnoTC9VEnLcH5_G-26" target="bblidsnoTC9VEnLcH5_G-29">
          <mxGeometry relative="1" as="geometry" />
        </mxCell>
        <mxCell id="bblidsnoTC9VEnLcH5_G-26" value="ods_ml_t1obcob" style="rounded=0;whiteSpace=wrap;html=1;fillColor=#dae8fc;strokeColor=#6c8ebf;fontSize=10;" vertex="1" parent="1">
          <mxGeometry x="790" y="130" width="140" height="60" as="geometry" />
        </mxCell>
        <mxCell id="bblidsnoTC9VEnLcH5_G-27" value="" style="endArrow=classic;html=1;rounded=0;entryX=0.5;entryY=0;entryDx=0;entryDy=0;exitX=0.5;exitY=1;exitDx=0;exitDy=0;" edge="1" parent="1" source="bblidsnoTC9VEnLcH5_G-21" target="bblidsnoTC9VEnLcH5_G-24">
          <mxGeometry width="50" height="50" relative="1" as="geometry">
            <mxPoint x="400" y="210" as="sourcePoint" />
            <mxPoint x="450" y="160" as="targetPoint" />
          </mxGeometry>
        </mxCell>
        <mxCell id="bblidsnoTC9VEnLcH5_G-53" style="edgeStyle=orthogonalEdgeStyle;rounded=0;orthogonalLoop=1;jettySize=auto;html=1;exitX=0.5;exitY=1;exitDx=0;exitDy=0;entryX=0.5;entryY=0;entryDx=0;entryDy=0;" edge="1" parent="1" source="bblidsnoTC9VEnLcH5_G-29" target="bblidsnoTC9VEnLcH5_G-52">
          <mxGeometry relative="1" as="geometry" />
        </mxCell>
        <mxCell id="bblidsnoTC9VEnLcH5_G-63" style="edgeStyle=orthogonalEdgeStyle;rounded=0;orthogonalLoop=1;jettySize=auto;html=1;entryX=0;entryY=0.633;entryDx=0;entryDy=0;entryPerimeter=0;" edge="1" parent="1" source="bblidsnoTC9VEnLcH5_G-29" target="bblidsnoTC9VEnLcH5_G-61">
          <mxGeometry relative="1" as="geometry">
            <Array as="points">
              <mxPoint x="660" y="170" />
              <mxPoint x="520" y="170" />
              <mxPoint x="520" y="448" />
            </Array>
          </mxGeometry>
        </mxCell>
        <mxCell id="bblidsnoTC9VEnLcH5_G-29" value="tmp_obligaciones_esp_desvios" style="rounded=0;whiteSpace=wrap;html=1;fontSize=10;fillColor=#f8cecc;strokeColor=#b85450;" vertex="1" parent="1">
          <mxGeometry x="590" y="100" width="140" height="60" as="geometry" />
        </mxCell>
        <mxCell id="bblidsnoTC9VEnLcH5_G-49" style="edgeStyle=orthogonalEdgeStyle;rounded=0;orthogonalLoop=1;jettySize=auto;html=1;exitX=1;exitY=0.5;exitDx=0;exitDy=0;entryX=0;entryY=0.5;entryDx=0;entryDy=0;" edge="1" parent="1" source="bblidsnoTC9VEnLcH5_G-30" target="bblidsnoTC9VEnLcH5_G-29">
          <mxGeometry relative="1" as="geometry" />
        </mxCell>
        <mxCell id="bblidsnoTC9VEnLcH5_G-30" value="ods_ml_T1CLCES" style="rounded=0;whiteSpace=wrap;html=1;fillColor=#dae8fc;strokeColor=#6c8ebf;fontSize=10;" vertex="1" parent="1">
          <mxGeometry x="370" y="70" width="140" height="60" as="geometry" />
        </mxCell>
        <mxCell id="bblidsnoTC9VEnLcH5_G-45" style="edgeStyle=orthogonalEdgeStyle;rounded=0;orthogonalLoop=1;jettySize=auto;html=1;exitX=0.5;exitY=1;exitDx=0;exitDy=0;entryX=0.5;entryY=0;entryDx=0;entryDy=0;" edge="1" parent="1" source="bblidsnoTC9VEnLcH5_G-31" target="bblidsnoTC9VEnLcH5_G-29">
          <mxGeometry relative="1" as="geometry" />
        </mxCell>
        <mxCell id="bblidsnoTC9VEnLcH5_G-31" value="&lt;span style=&quot;font-size: 10px; line-height: 107%; font-family: Calibri, sans-serif;&quot;&gt;ods_ml_T1OBABO&lt;/span&gt;" style="rounded=0;whiteSpace=wrap;html=1;fillColor=#dae8fc;strokeColor=#6c8ebf;fontSize=10;" vertex="1" parent="1">
          <mxGeometry x="510" y="10" width="140" height="60" as="geometry" />
        </mxCell>
        <mxCell id="bblidsnoTC9VEnLcH5_G-46" style="edgeStyle=orthogonalEdgeStyle;rounded=0;orthogonalLoop=1;jettySize=auto;html=1;exitX=0.5;exitY=1;exitDx=0;exitDy=0;entryX=0.5;entryY=0;entryDx=0;entryDy=0;" edge="1" parent="1" source="bblidsnoTC9VEnLcH5_G-32" target="bblidsnoTC9VEnLcH5_G-29">
          <mxGeometry relative="1" as="geometry" />
        </mxCell>
        <mxCell id="bblidsnoTC9VEnLcH5_G-32" value="&lt;p style=&quot;text-indent: -18pt; font-size: 10px;&quot; class=&quot;MsoListParagraph&quot;&gt;ods_ml_T1FACTU&lt;/p&gt;" style="rounded=0;whiteSpace=wrap;html=1;fillColor=#dae8fc;strokeColor=#6c8ebf;fontSize=10;" vertex="1" parent="1">
          <mxGeometry x="650" y="10" width="140" height="60" as="geometry" />
        </mxCell>
        <mxCell id="bblidsnoTC9VEnLcH5_G-47" style="edgeStyle=orthogonalEdgeStyle;rounded=0;orthogonalLoop=1;jettySize=auto;html=1;exitX=0;exitY=0.5;exitDx=0;exitDy=0;entryX=1;entryY=0.5;entryDx=0;entryDy=0;" edge="1" parent="1" source="bblidsnoTC9VEnLcH5_G-33" target="bblidsnoTC9VEnLcH5_G-29">
          <mxGeometry relative="1" as="geometry" />
        </mxCell>
        <mxCell id="bblidsnoTC9VEnLcH5_G-33" value="ods_ml_T1FACDA" style="rounded=0;whiteSpace=wrap;html=1;fillColor=#dae8fc;strokeColor=#6c8ebf;fontSize=10;" vertex="1" parent="1">
          <mxGeometry x="790" y="70" width="140" height="60" as="geometry" />
        </mxCell>
        <mxCell id="bblidsnoTC9VEnLcH5_G-50" style="edgeStyle=orthogonalEdgeStyle;rounded=0;orthogonalLoop=1;jettySize=auto;html=1;exitX=1;exitY=0.5;exitDx=0;exitDy=0;entryX=0;entryY=0.5;entryDx=0;entryDy=0;" edge="1" parent="1" source="bblidsnoTC9VEnLcH5_G-41" target="bblidsnoTC9VEnLcH5_G-29">
          <mxGeometry relative="1" as="geometry" />
        </mxCell>
        <mxCell id="bblidsnoTC9VEnLcH5_G-41" value="ods_ml_t1oblig" style="rounded=0;whiteSpace=wrap;html=1;fillColor=#dae8fc;strokeColor=#6c8ebf;fontSize=10;" vertex="1" parent="1">
          <mxGeometry x="370" y="130" width="140" height="60" as="geometry" />
        </mxCell>
        <mxCell id="bblidsnoTC9VEnLcH5_G-55" style="edgeStyle=orthogonalEdgeStyle;rounded=0;orthogonalLoop=1;jettySize=auto;html=1;exitX=0.5;exitY=1;exitDx=0;exitDy=0;" edge="1" parent="1" source="bblidsnoTC9VEnLcH5_G-52" target="bblidsnoTC9VEnLcH5_G-54">
          <mxGeometry relative="1" as="geometry" />
        </mxCell>
        <mxCell id="bblidsnoTC9VEnLcH5_G-52" value="tmp_obligaciones_contratos_T3RESOP_esp_desvios" style="rounded=0;whiteSpace=wrap;html=1;fillColor=#f8cecc;strokeColor=#b85450;fontSize=10;" vertex="1" parent="1">
          <mxGeometry x="535" y="210" width="250" height="60" as="geometry" />
        </mxCell>
        <mxCell id="bblidsnoTC9VEnLcH5_G-62" value="" style="edgeStyle=orthogonalEdgeStyle;rounded=0;orthogonalLoop=1;jettySize=auto;html=1;" edge="1" parent="1" source="bblidsnoTC9VEnLcH5_G-54" target="bblidsnoTC9VEnLcH5_G-61">
          <mxGeometry relative="1" as="geometry" />
        </mxCell>
        <mxCell id="bblidsnoTC9VEnLcH5_G-54" value="tmp_Movimientos_T3RESOP_esp_desvios&amp;nbsp;" style="rounded=0;whiteSpace=wrap;html=1;fillColor=#f8cecc;strokeColor=#b85450;fontSize=10;" vertex="1" parent="1">
          <mxGeometry x="557.5" y="320" width="205" height="60" as="geometry" />
        </mxCell>
        <mxCell id="bblidsnoTC9VEnLcH5_G-60" style="edgeStyle=orthogonalEdgeStyle;rounded=0;orthogonalLoop=1;jettySize=auto;html=1;entryX=0.5;entryY=0;entryDx=0;entryDy=0;" edge="1" parent="1" source="bblidsnoTC9VEnLcH5_G-59" target="bblidsnoTC9VEnLcH5_G-54">
          <mxGeometry relative="1" as="geometry" />
        </mxCell>
        <mxCell id="bblidsnoTC9VEnLcH5_G-59" value="ods_ml_T3RESOP" style="rounded=0;whiteSpace=wrap;html=1;fillColor=#dae8fc;strokeColor=#6c8ebf;fontSize=10;" vertex="1" parent="1">
          <mxGeometry x="820" y="270" width="140" height="60" as="geometry" />
        </mxCell>
        <mxCell id="bblidsnoTC9VEnLcH5_G-74" style="edgeStyle=orthogonalEdgeStyle;rounded=0;orthogonalLoop=1;jettySize=auto;html=1;exitX=0.5;exitY=1;exitDx=0;exitDy=0;entryX=0.5;entryY=0;entryDx=0;entryDy=0;" edge="1" parent="1" source="bblidsnoTC9VEnLcH5_G-61" target="bblidsnoTC9VEnLcH5_G-72">
          <mxGeometry relative="1" as="geometry">
            <Array as="points">
              <mxPoint x="660" y="500" />
              <mxPoint x="324" y="500" />
            </Array>
          </mxGeometry>
        </mxCell>
        <mxCell id="bblidsnoTC9VEnLcH5_G-61" value="tmp_Movimientos_Obligacion_esp_desvios" style="rounded=0;whiteSpace=wrap;html=1;fontSize=10;fillColor=#f8cecc;strokeColor=#b85450;" vertex="1" parent="1">
          <mxGeometry x="555" y="410" width="210" height="60" as="geometry" />
        </mxCell>
        <mxCell id="bblidsnoTC9VEnLcH5_G-66" value="" style="edgeStyle=orthogonalEdgeStyle;rounded=0;orthogonalLoop=1;jettySize=auto;html=1;" edge="1" parent="1" source="bblidsnoTC9VEnLcH5_G-64" target="bblidsnoTC9VEnLcH5_G-61">
          <mxGeometry relative="1" as="geometry" />
        </mxCell>
        <mxCell id="bblidsnoTC9VEnLcH5_G-64" value="ods_ml_t1movob" style="rounded=0;whiteSpace=wrap;html=1;fillColor=#dae8fc;strokeColor=#6c8ebf;fontSize=10;" vertex="1" parent="1">
          <mxGeometry x="810" y="370" width="140" height="60" as="geometry" />
        </mxCell>
        <mxCell id="bblidsnoTC9VEnLcH5_G-67" value="" style="edgeStyle=orthogonalEdgeStyle;rounded=0;orthogonalLoop=1;jettySize=auto;html=1;" edge="1" parent="1" source="bblidsnoTC9VEnLcH5_G-65" target="bblidsnoTC9VEnLcH5_G-61">
          <mxGeometry relative="1" as="geometry" />
        </mxCell>
        <mxCell id="bblidsnoTC9VEnLcH5_G-65" value="ods_ml_T1TRANF" style="rounded=0;whiteSpace=wrap;html=1;fillColor=#dae8fc;strokeColor=#6c8ebf;fontSize=10;" vertex="1" parent="1">
          <mxGeometry x="810" y="450" width="140" height="60" as="geometry" />
        </mxCell>
        <mxCell id="bblidsnoTC9VEnLcH5_G-73" style="edgeStyle=orthogonalEdgeStyle;rounded=0;orthogonalLoop=1;jettySize=auto;html=1;exitX=0.5;exitY=1;exitDx=0;exitDy=0;entryX=0.5;entryY=0;entryDx=0;entryDy=0;" edge="1" parent="1" source="bblidsnoTC9VEnLcH5_G-70" target="bblidsnoTC9VEnLcH5_G-72">
          <mxGeometry relative="1" as="geometry">
            <Array as="points">
              <mxPoint x="120" y="500" />
              <mxPoint x="324" y="500" />
            </Array>
          </mxGeometry>
        </mxCell>
        <mxCell id="bblidsnoTC9VEnLcH5_G-70" value="tmp_tlcodfa_linea_negocio_fixed_esp_desvios" style="rounded=0;whiteSpace=wrap;html=1;fontSize=10;fillColor=#f8cecc;strokeColor=#b85450;" vertex="1" parent="1">
          <mxGeometry y="390" width="220" height="60" as="geometry" />
        </mxCell>
        <mxCell id="bblidsnoTC9VEnLcH5_G-78" style="edgeStyle=orthogonalEdgeStyle;rounded=0;orthogonalLoop=1;jettySize=auto;html=1;exitX=0.5;exitY=1;exitDx=0;exitDy=0;entryX=0.5;entryY=0;entryDx=0;entryDy=0;" edge="1" parent="1" source="bblidsnoTC9VEnLcH5_G-72" target="bblidsnoTC9VEnLcH5_G-75">
          <mxGeometry relative="1" as="geometry">
            <Array as="points">
              <mxPoint x="308" y="610" />
            </Array>
          </mxGeometry>
        </mxCell>
        <mxCell id="bblidsnoTC9VEnLcH5_G-72" value="tmp_Movimientos_Obligacion_Acuerdos_Extra_Fixed_LN_esp_desvios" style="rounded=0;whiteSpace=wrap;html=1;fillColor=#f8cecc;strokeColor=#b85450;fontSize=10;" vertex="1" parent="1">
          <mxGeometry x="160" y="550" width="327.5" height="60" as="geometry" />
        </mxCell>
        <mxCell id="bblidsnoTC9VEnLcH5_G-127" style="edgeStyle=orthogonalEdgeStyle;rounded=0;orthogonalLoop=1;jettySize=auto;html=1;exitX=0.5;exitY=1;exitDx=0;exitDy=0;entryX=0.5;entryY=0;entryDx=0;entryDy=0;" edge="1" parent="1" source="bblidsnoTC9VEnLcH5_G-75" target="bblidsnoTC9VEnLcH5_G-125">
          <mxGeometry relative="1" as="geometry" />
        </mxCell>
        <mxCell id="bblidsnoTC9VEnLcH5_G-75" value="tmp_Cobros_Trazable_esp_desvios" style="rounded=0;whiteSpace=wrap;html=1;fillColor=#f8cecc;strokeColor=#b85450;fontSize=10;" vertex="1" parent="1">
          <mxGeometry x="222.5" y="710" width="171.25" height="60" as="geometry" />
        </mxCell>
        <mxCell id="bblidsnoTC9VEnLcH5_G-81" style="edgeStyle=orthogonalEdgeStyle;rounded=0;orthogonalLoop=1;jettySize=auto;html=1;exitX=0;exitY=0.5;exitDx=0;exitDy=0;entryX=0.5;entryY=0;entryDx=0;entryDy=0;" edge="1" parent="1" source="bblidsnoTC9VEnLcH5_G-76" target="bblidsnoTC9VEnLcH5_G-75">
          <mxGeometry relative="1" as="geometry">
            <Array as="points">
              <mxPoint x="308" y="640" />
            </Array>
          </mxGeometry>
        </mxCell>
        <mxCell id="bblidsnoTC9VEnLcH5_G-76" value="P01_clientes_fact_adelantada" style="rounded=0;whiteSpace=wrap;html=1;fillColor=#f8cecc;strokeColor=#b85450;fontSize=10;" vertex="1" parent="1">
          <mxGeometry x="487.5" y="610" width="140" height="60" as="geometry" />
        </mxCell>
        <mxCell id="bblidsnoTC9VEnLcH5_G-80" style="edgeStyle=orthogonalEdgeStyle;rounded=0;orthogonalLoop=1;jettySize=auto;html=1;exitX=1;exitY=0.5;exitDx=0;exitDy=0;entryX=0.5;entryY=0;entryDx=0;entryDy=0;" edge="1" parent="1" source="bblidsnoTC9VEnLcH5_G-77" target="bblidsnoTC9VEnLcH5_G-75">
          <mxGeometry relative="1" as="geometry" />
        </mxCell>
        <mxCell id="bblidsnoTC9VEnLcH5_G-77" value="P01_clientes_con_segmento" style="rounded=0;whiteSpace=wrap;html=1;fillColor=#f8cecc;strokeColor=#b85450;fontSize=10;" vertex="1" parent="1">
          <mxGeometry x="20" y="610" width="140" height="60" as="geometry" />
        </mxCell>
        <mxCell id="bblidsnoTC9VEnLcH5_G-120" style="edgeStyle=orthogonalEdgeStyle;rounded=0;orthogonalLoop=1;jettySize=auto;html=1;exitX=0;exitY=0.5;exitDx=0;exitDy=0;entryX=1;entryY=0.5;entryDx=0;entryDy=0;" edge="1" parent="1" source="bblidsnoTC9VEnLcH5_G-107" target="bblidsnoTC9VEnLcH5_G-108">
          <mxGeometry relative="1" as="geometry" />
        </mxCell>
        <mxCell id="bblidsnoTC9VEnLcH5_G-107" value="ods_ml_T1OBNEG" style="rounded=0;whiteSpace=wrap;html=1;fillColor=#dae8fc;strokeColor=#6c8ebf;fontSize=10;" vertex="1" parent="1">
          <mxGeometry x="990" y="750" width="100" height="60" as="geometry" />
        </mxCell>
        <mxCell id="bblidsnoTC9VEnLcH5_G-124" style="edgeStyle=orthogonalEdgeStyle;rounded=0;orthogonalLoop=1;jettySize=auto;html=1;exitX=0.5;exitY=1;exitDx=0;exitDy=0;entryX=0.5;entryY=0;entryDx=0;entryDy=0;" edge="1" parent="1" source="bblidsnoTC9VEnLcH5_G-108" target="bblidsnoTC9VEnLcH5_G-123">
          <mxGeometry relative="1" as="geometry" />
        </mxCell>
        <mxCell id="bblidsnoTC9VEnLcH5_G-108" value="tmp_car_cf_no_trazable_desvios&amp;nbsp;" style="rounded=0;whiteSpace=wrap;html=1;fontSize=10;fillColor=#f8cecc;strokeColor=#b85450;" vertex="1" parent="1">
          <mxGeometry x="780" y="820" width="160" height="60" as="geometry" />
        </mxCell>
        <mxCell id="bblidsnoTC9VEnLcH5_G-109" style="edgeStyle=orthogonalEdgeStyle;rounded=0;orthogonalLoop=1;jettySize=auto;html=1;exitX=1;exitY=0.5;exitDx=0;exitDy=0;entryX=0;entryY=0.5;entryDx=0;entryDy=0;" edge="1" parent="1" source="bblidsnoTC9VEnLcH5_G-110" target="bblidsnoTC9VEnLcH5_G-108">
          <mxGeometry relative="1" as="geometry" />
        </mxCell>
        <mxCell id="bblidsnoTC9VEnLcH5_G-110" value="ods_ml_T1FACTU" style="rounded=0;whiteSpace=wrap;html=1;fillColor=#dae8fc;strokeColor=#6c8ebf;fontSize=10;" vertex="1" parent="1">
          <mxGeometry x="600" y="690" width="110" height="60" as="geometry" />
        </mxCell>
        <mxCell id="bblidsnoTC9VEnLcH5_G-111" style="edgeStyle=orthogonalEdgeStyle;rounded=0;orthogonalLoop=1;jettySize=auto;html=1;exitX=0.5;exitY=1;exitDx=0;exitDy=0;entryX=0.5;entryY=0;entryDx=0;entryDy=0;" edge="1" parent="1" source="bblidsnoTC9VEnLcH5_G-112" target="bblidsnoTC9VEnLcH5_G-108">
          <mxGeometry relative="1" as="geometry">
            <Array as="points">
              <mxPoint x="770" y="690" />
              <mxPoint x="770" y="755" />
              <mxPoint x="860" y="755" />
            </Array>
          </mxGeometry>
        </mxCell>
        <mxCell id="bblidsnoTC9VEnLcH5_G-112" value="ods_ml_t1tranf" style="rounded=0;whiteSpace=wrap;html=1;fillColor=#dae8fc;strokeColor=#6c8ebf;fontSize=10;" vertex="1" parent="1">
          <mxGeometry x="710" y="630" width="80" height="60" as="geometry" />
        </mxCell>
        <mxCell id="bblidsnoTC9VEnLcH5_G-113" style="edgeStyle=orthogonalEdgeStyle;rounded=0;orthogonalLoop=1;jettySize=auto;html=1;exitX=0.5;exitY=1;exitDx=0;exitDy=0;entryX=0.5;entryY=0;entryDx=0;entryDy=0;" edge="1" parent="1" source="bblidsnoTC9VEnLcH5_G-114" target="bblidsnoTC9VEnLcH5_G-108">
          <mxGeometry relative="1" as="geometry">
            <Array as="points">
              <mxPoint x="940" y="755" />
              <mxPoint x="860" y="755" />
            </Array>
          </mxGeometry>
        </mxCell>
        <mxCell id="bblidsnoTC9VEnLcH5_G-114" value="&lt;blockquote style=&quot;margin: 0 0 0 40px; border: none; padding: 0px;&quot;&gt;&lt;p style=&quot;text-indent: -18pt; font-size: 10px;&quot; class=&quot;MsoListParagraph&quot;&gt;ods_ml_t1tranf&lt;/p&gt;&lt;/blockquote&gt;" style="rounded=0;whiteSpace=wrap;html=1;fillColor=#dae8fc;strokeColor=#6c8ebf;fontSize=10;align=left;" vertex="1" parent="1">
          <mxGeometry x="890" y="630" width="100" height="60" as="geometry" />
        </mxCell>
        <mxCell id="bblidsnoTC9VEnLcH5_G-115" style="edgeStyle=orthogonalEdgeStyle;rounded=0;orthogonalLoop=1;jettySize=auto;html=1;exitX=0;exitY=0.5;exitDx=0;exitDy=0;entryX=1;entryY=0.5;entryDx=0;entryDy=0;" edge="1" parent="1" source="bblidsnoTC9VEnLcH5_G-116" target="bblidsnoTC9VEnLcH5_G-108">
          <mxGeometry relative="1" as="geometry" />
        </mxCell>
        <mxCell id="bblidsnoTC9VEnLcH5_G-116" value="ods_ml_T1FACDA" style="rounded=0;whiteSpace=wrap;html=1;fillColor=#dae8fc;strokeColor=#6c8ebf;fontSize=10;" vertex="1" parent="1">
          <mxGeometry x="990" y="690" width="100" height="60" as="geometry" />
        </mxCell>
        <mxCell id="bblidsnoTC9VEnLcH5_G-117" style="edgeStyle=orthogonalEdgeStyle;rounded=0;orthogonalLoop=1;jettySize=auto;html=1;exitX=1;exitY=0.5;exitDx=0;exitDy=0;entryX=0;entryY=0.5;entryDx=0;entryDy=0;" edge="1" parent="1" source="bblidsnoTC9VEnLcH5_G-118" target="bblidsnoTC9VEnLcH5_G-108">
          <mxGeometry relative="1" as="geometry" />
        </mxCell>
        <mxCell id="bblidsnoTC9VEnLcH5_G-118" value="ods_ml_T1CTRCF" style="rounded=0;whiteSpace=wrap;html=1;fillColor=#dae8fc;strokeColor=#6c8ebf;fontSize=10;" vertex="1" parent="1">
          <mxGeometry x="600" y="750" width="110" height="60" as="geometry" />
        </mxCell>
        <mxCell id="bblidsnoTC9VEnLcH5_G-122" style="edgeStyle=orthogonalEdgeStyle;rounded=0;orthogonalLoop=1;jettySize=auto;html=1;exitX=0.5;exitY=1;exitDx=0;exitDy=0;entryX=0.5;entryY=0;entryDx=0;entryDy=0;" edge="1" parent="1" source="bblidsnoTC9VEnLcH5_G-121" target="bblidsnoTC9VEnLcH5_G-108">
          <mxGeometry relative="1" as="geometry">
            <Array as="points">
              <mxPoint x="860" y="690" />
            </Array>
          </mxGeometry>
        </mxCell>
        <mxCell id="bblidsnoTC9VEnLcH5_G-121" value="&lt;blockquote style=&quot;margin: 0 0 0 40px; border: none; padding: 0px;&quot;&gt;&lt;p style=&quot;text-indent: -18pt; font-size: 10px;&quot; class=&quot;MsoListParagraph&quot;&gt;ods_ml_t3resop&lt;/p&gt;&lt;/blockquote&gt;" style="rounded=0;whiteSpace=wrap;html=1;fillColor=#dae8fc;strokeColor=#6c8ebf;fontSize=10;align=left;" vertex="1" parent="1">
          <mxGeometry x="790" y="630" width="100" height="60" as="geometry" />
        </mxCell>
        <mxCell id="bblidsnoTC9VEnLcH5_G-126" style="edgeStyle=orthogonalEdgeStyle;rounded=0;orthogonalLoop=1;jettySize=auto;html=1;exitX=0;exitY=0.5;exitDx=0;exitDy=0;entryX=1;entryY=0.5;entryDx=0;entryDy=0;" edge="1" parent="1" source="bblidsnoTC9VEnLcH5_G-123" target="bblidsnoTC9VEnLcH5_G-125">
          <mxGeometry relative="1" as="geometry" />
        </mxCell>
        <mxCell id="bblidsnoTC9VEnLcH5_G-123" value="P02_car_cobros_no_trazable_esp_por_desvios" style="rounded=0;whiteSpace=wrap;html=1;fontSize=10;fillColor=#f8cecc;strokeColor=#b85450;" vertex="1" parent="1">
          <mxGeometry x="750" y="920" width="220" height="60" as="geometry" />
        </mxCell>
        <mxCell id="bblidsnoTC9VEnLcH5_G-129" style="edgeStyle=orthogonalEdgeStyle;rounded=0;orthogonalLoop=1;jettySize=auto;html=1;exitX=0.5;exitY=1;exitDx=0;exitDy=0;entryX=0.5;entryY=0;entryDx=0;entryDy=0;" edge="1" parent="1" source="bblidsnoTC9VEnLcH5_G-125" target="bblidsnoTC9VEnLcH5_G-128">
          <mxGeometry relative="1" as="geometry" />
        </mxCell>
        <mxCell id="bblidsnoTC9VEnLcH5_G-125" value="&lt;a name=&quot;_Toc135665583&quot;&gt;P03_Cobros_Trazable_No_Trazables_esp_desvios&lt;/a&gt;" style="rounded=0;whiteSpace=wrap;html=1;fontSize=10;fillColor=#f8cecc;strokeColor=#b85450;" vertex="1" parent="1">
          <mxGeometry x="350" y="920" width="240" height="60" as="geometry" />
        </mxCell>
        <mxCell id="bblidsnoTC9VEnLcH5_G-133" style="edgeStyle=orthogonalEdgeStyle;rounded=0;orthogonalLoop=1;jettySize=auto;html=1;exitX=0.5;exitY=1;exitDx=0;exitDy=0;entryX=0.5;entryY=0;entryDx=0;entryDy=0;" edge="1" parent="1" source="bblidsnoTC9VEnLcH5_G-128" target="bblidsnoTC9VEnLcH5_G-130">
          <mxGeometry relative="1" as="geometry" />
        </mxCell>
        <mxCell id="bblidsnoTC9VEnLcH5_G-128" value="&lt;a name=&quot;_Toc135665584&quot;&gt;tmp_P03_Cobros_Trazable_No_Trazables_esp_desvios&lt;/a&gt;" style="rounded=0;whiteSpace=wrap;html=1;fontSize=10;fillColor=#f8cecc;strokeColor=#b85450;" vertex="1" parent="1">
          <mxGeometry x="335" y="1020" width="270" height="60" as="geometry" />
        </mxCell>
        <mxCell id="bblidsnoTC9VEnLcH5_G-135" value="" style="edgeStyle=orthogonalEdgeStyle;rounded=0;orthogonalLoop=1;jettySize=auto;html=1;" edge="1" parent="1" source="bblidsnoTC9VEnLcH5_G-130" target="bblidsnoTC9VEnLcH5_G-134">
          <mxGeometry relative="1" as="geometry" />
        </mxCell>
        <mxCell id="bblidsnoTC9VEnLcH5_G-139" style="edgeStyle=orthogonalEdgeStyle;rounded=0;orthogonalLoop=1;jettySize=auto;html=1;exitX=0;exitY=0.5;exitDx=0;exitDy=0;entryX=0;entryY=0.5;entryDx=0;entryDy=0;" edge="1" parent="1" source="bblidsnoTC9VEnLcH5_G-130" target="bblidsnoTC9VEnLcH5_G-137">
          <mxGeometry relative="1" as="geometry" />
        </mxCell>
        <mxCell id="bblidsnoTC9VEnLcH5_G-130" value="tmp_car_cobro_drivers_esp_diario_desvios" style="rounded=0;whiteSpace=wrap;html=1;fontSize=10;fillColor=#f8cecc;strokeColor=#b85450;" vertex="1" parent="1">
          <mxGeometry x="365" y="1140" width="210" height="60" as="geometry" />
        </mxCell>
        <mxCell id="bblidsnoTC9VEnLcH5_G-136" style="edgeStyle=orthogonalEdgeStyle;rounded=0;orthogonalLoop=1;jettySize=auto;html=1;exitX=0;exitY=0.5;exitDx=0;exitDy=0;" edge="1" parent="1" source="bblidsnoTC9VEnLcH5_G-132">
          <mxGeometry relative="1" as="geometry">
            <mxPoint x="470" y="1250" as="targetPoint" />
            <Array as="points">
              <mxPoint x="645" y="1220" />
              <mxPoint x="470" y="1220" />
            </Array>
          </mxGeometry>
        </mxCell>
        <mxCell id="bblidsnoTC9VEnLcH5_G-162" style="edgeStyle=orthogonalEdgeStyle;rounded=0;orthogonalLoop=1;jettySize=auto;html=1;exitX=0.5;exitY=1;exitDx=0;exitDy=0;entryX=0;entryY=0.5;entryDx=0;entryDy=0;" edge="1" parent="1" source="bblidsnoTC9VEnLcH5_G-132" target="bblidsnoTC9VEnLcH5_G-160">
          <mxGeometry relative="1" as="geometry">
            <Array as="points">
              <mxPoint x="680" y="1410" />
              <mxPoint x="1080" y="1410" />
              <mxPoint x="1080" y="1450" />
            </Array>
          </mxGeometry>
        </mxCell>
        <mxCell id="bblidsnoTC9VEnLcH5_G-132" value="master_var_typeofday" style="rounded=0;whiteSpace=wrap;html=1;fillColor=#f8cecc;strokeColor=#b85450;fontSize=10;" vertex="1" parent="1">
          <mxGeometry x="610" y="1190" width="140" height="60" as="geometry" />
        </mxCell>
        <mxCell id="bblidsnoTC9VEnLcH5_G-138" style="edgeStyle=orthogonalEdgeStyle;rounded=0;orthogonalLoop=1;jettySize=auto;html=1;exitX=0.5;exitY=1;exitDx=0;exitDy=0;entryX=0.5;entryY=0;entryDx=0;entryDy=0;" edge="1" parent="1" source="bblidsnoTC9VEnLcH5_G-134" target="bblidsnoTC9VEnLcH5_G-137">
          <mxGeometry relative="1" as="geometry" />
        </mxCell>
        <mxCell id="bblidsnoTC9VEnLcH5_G-134" value="&lt;span style=&quot;font-size: 10px; line-height: 107%; font-family: Calibri, sans-serif;&quot;&gt;tmp_master_dias_segmentos_desvios&lt;/span&gt;" style="rounded=0;whiteSpace=wrap;html=1;fillColor=#f8cecc;strokeColor=#b85450;fontSize=10;" vertex="1" parent="1">
          <mxGeometry x="380" y="1250" width="180" height="60" as="geometry" />
        </mxCell>
        <mxCell id="bblidsnoTC9VEnLcH5_G-150" style="edgeStyle=orthogonalEdgeStyle;rounded=0;orthogonalLoop=1;jettySize=auto;html=1;exitX=0.5;exitY=1;exitDx=0;exitDy=0;entryX=0.5;entryY=0;entryDx=0;entryDy=0;" edge="1" parent="1" source="bblidsnoTC9VEnLcH5_G-137" target="bblidsnoTC9VEnLcH5_G-149">
          <mxGeometry relative="1" as="geometry" />
        </mxCell>
        <mxCell id="bblidsnoTC9VEnLcH5_G-137" value="tmp_car_fc_d_es_desvios" style="rounded=0;whiteSpace=wrap;html=1;fillColor=#f8cecc;strokeColor=#b85450;fontSize=10;" vertex="1" parent="1">
          <mxGeometry x="380" y="1340" width="180" height="60" as="geometry" />
        </mxCell>
        <mxCell id="bblidsnoTC9VEnLcH5_G-145" style="edgeStyle=orthogonalEdgeStyle;rounded=0;orthogonalLoop=1;jettySize=auto;html=1;exitX=0.5;exitY=1;exitDx=0;exitDy=0;entryX=0.5;entryY=0;entryDx=0;entryDy=0;" edge="1" parent="1" source="bblidsnoTC9VEnLcH5_G-140" target="bblidsnoTC9VEnLcH5_G-143">
          <mxGeometry relative="1" as="geometry" />
        </mxCell>
        <mxCell id="bblidsnoTC9VEnLcH5_G-140" value="&lt;span style=&quot;line-height: 107%;&quot;&gt;&lt;font style=&quot;font-size: 10px;&quot;&gt;master_desvios_mes_es&lt;/font&gt;&lt;/span&gt;" style="rounded=0;whiteSpace=wrap;html=1;fillColor=#f8cecc;strokeColor=#b85450;fontSize=10;fontFamily=Times New Roman;" vertex="1" parent="1">
          <mxGeometry x="805" y="1190" width="140" height="60" as="geometry" />
        </mxCell>
        <mxCell id="bblidsnoTC9VEnLcH5_G-142" style="edgeStyle=orthogonalEdgeStyle;rounded=0;orthogonalLoop=1;jettySize=auto;html=1;exitX=0.5;exitY=1;exitDx=0;exitDy=0;entryX=0.5;entryY=0;entryDx=0;entryDy=0;" edge="1" parent="1" source="bblidsnoTC9VEnLcH5_G-141" target="bblidsnoTC9VEnLcH5_G-140">
          <mxGeometry relative="1" as="geometry" />
        </mxCell>
        <mxCell id="bblidsnoTC9VEnLcH5_G-155" style="edgeStyle=orthogonalEdgeStyle;rounded=0;orthogonalLoop=1;jettySize=auto;html=1;exitX=1;exitY=0.5;exitDx=0;exitDy=0;entryX=0.5;entryY=0;entryDx=0;entryDy=0;" edge="1" parent="1" source="bblidsnoTC9VEnLcH5_G-141" target="bblidsnoTC9VEnLcH5_G-154">
          <mxGeometry relative="1" as="geometry" />
        </mxCell>
        <mxCell id="bblidsnoTC9VEnLcH5_G-141" value="master_models_execution_esp" style="rounded=0;whiteSpace=wrap;html=1;fillColor=#f8cecc;strokeColor=#b85450;fontSize=10;fontFamily=Times New Roman;" vertex="1" parent="1">
          <mxGeometry x="805" y="1090" width="140" height="60" as="geometry" />
        </mxCell>
        <mxCell id="bblidsnoTC9VEnLcH5_G-148" style="edgeStyle=orthogonalEdgeStyle;rounded=0;orthogonalLoop=1;jettySize=auto;html=1;exitX=0.5;exitY=1;exitDx=0;exitDy=0;entryX=0.5;entryY=0;entryDx=0;entryDy=0;" edge="1" parent="1" source="bblidsnoTC9VEnLcH5_G-143" target="bblidsnoTC9VEnLcH5_G-147">
          <mxGeometry relative="1" as="geometry" />
        </mxCell>
        <mxCell id="bblidsnoTC9VEnLcH5_G-143" value="model_max_execution_model_fc_d_es_forecast_data_informe_desvios&amp;nbsp;" style="rounded=0;whiteSpace=wrap;html=1;fillColor=#f8cecc;strokeColor=#b85450;fontSize=10;fontFamily=Times New Roman;" vertex="1" parent="1">
          <mxGeometry x="770" y="1320" width="320" height="60" as="geometry" />
        </mxCell>
        <mxCell id="bblidsnoTC9VEnLcH5_G-146" style="edgeStyle=orthogonalEdgeStyle;rounded=0;orthogonalLoop=1;jettySize=auto;html=1;exitX=0.5;exitY=1;exitDx=0;exitDy=0;entryX=0.5;entryY=0;entryDx=0;entryDy=0;" edge="1" parent="1" source="bblidsnoTC9VEnLcH5_G-144" target="bblidsnoTC9VEnLcH5_G-143">
          <mxGeometry relative="1" as="geometry" />
        </mxCell>
        <mxCell id="bblidsnoTC9VEnLcH5_G-158" style="edgeStyle=orthogonalEdgeStyle;rounded=0;orthogonalLoop=1;jettySize=auto;html=1;exitX=1;exitY=0.5;exitDx=0;exitDy=0;entryX=0.5;entryY=0;entryDx=0;entryDy=0;" edge="1" parent="1" source="bblidsnoTC9VEnLcH5_G-144" target="bblidsnoTC9VEnLcH5_G-156">
          <mxGeometry relative="1" as="geometry" />
        </mxCell>
        <mxCell id="bblidsnoTC9VEnLcH5_G-144" value="model_fc_d_es_forecast" style="rounded=0;whiteSpace=wrap;html=1;fillColor=#f8cecc;strokeColor=#b85450;fontSize=10;fontFamily=Times New Roman;" vertex="1" parent="1">
          <mxGeometry x="950" y="1190" width="140" height="60" as="geometry" />
        </mxCell>
        <mxCell id="bblidsnoTC9VEnLcH5_G-153" style="edgeStyle=orthogonalEdgeStyle;rounded=0;orthogonalLoop=1;jettySize=auto;html=1;exitX=0.5;exitY=1;exitDx=0;exitDy=0;entryX=0.5;entryY=0;entryDx=0;entryDy=0;" edge="1" parent="1" source="bblidsnoTC9VEnLcH5_G-147" target="bblidsnoTC9VEnLcH5_G-151">
          <mxGeometry relative="1" as="geometry">
            <mxPoint x="330" y="1530" as="targetPoint" />
          </mxGeometry>
        </mxCell>
        <mxCell id="bblidsnoTC9VEnLcH5_G-147" value="model_execution_grouped_es&amp;nbsp;" style="rounded=0;whiteSpace=wrap;html=1;fillColor=#f8cecc;strokeColor=#b85450;fontSize=10;fontFamily=Times New Roman;" vertex="1" parent="1">
          <mxGeometry x="860" y="1430" width="140" height="60" as="geometry" />
        </mxCell>
        <mxCell id="bblidsnoTC9VEnLcH5_G-152" style="edgeStyle=orthogonalEdgeStyle;rounded=0;orthogonalLoop=1;jettySize=auto;html=1;exitX=0.5;exitY=1;exitDx=0;exitDy=0;entryX=0.5;entryY=0;entryDx=0;entryDy=0;" edge="1" parent="1" source="bblidsnoTC9VEnLcH5_G-149" target="bblidsnoTC9VEnLcH5_G-151">
          <mxGeometry relative="1" as="geometry" />
        </mxCell>
        <mxCell id="bblidsnoTC9VEnLcH5_G-149" value="tmp_car_segment_aux&amp;nbsp;" style="rounded=0;whiteSpace=wrap;html=1;fillColor=#f8cecc;strokeColor=#b85450;fontSize=10;" vertex="1" parent="1">
          <mxGeometry x="380" y="1430" width="180" height="60" as="geometry" />
        </mxCell>
        <mxCell id="bblidsnoTC9VEnLcH5_G-166" style="edgeStyle=orthogonalEdgeStyle;rounded=0;orthogonalLoop=1;jettySize=auto;html=1;exitX=1;exitY=0.5;exitDx=0;exitDy=0;entryX=0;entryY=0.5;entryDx=0;entryDy=0;" edge="1" parent="1" source="bblidsnoTC9VEnLcH5_G-151" target="bblidsnoTC9VEnLcH5_G-165">
          <mxGeometry relative="1" as="geometry" />
        </mxCell>
        <mxCell id="bblidsnoTC9VEnLcH5_G-151" value="desvio_diario_es_ml&amp;nbsp;" style="rounded=0;whiteSpace=wrap;html=1;fillColor=#f8cecc;strokeColor=#b85450;fontSize=10;" vertex="1" parent="1">
          <mxGeometry x="635" y="1530" width="150" height="60" as="geometry" />
        </mxCell>
        <mxCell id="bblidsnoTC9VEnLcH5_G-159" style="edgeStyle=orthogonalEdgeStyle;rounded=0;orthogonalLoop=1;jettySize=auto;html=1;exitX=0;exitY=0.5;exitDx=0;exitDy=0;entryX=0.5;entryY=0;entryDx=0;entryDy=0;" edge="1" parent="1" source="bblidsnoTC9VEnLcH5_G-154" target="bblidsnoTC9VEnLcH5_G-156">
          <mxGeometry relative="1" as="geometry" />
        </mxCell>
        <mxCell id="bblidsnoTC9VEnLcH5_G-154" value="master_desvios_mes_es_sap&amp;nbsp;" style="rounded=0;whiteSpace=wrap;html=1;fillColor=#f8cecc;strokeColor=#b85450;fontSize=10;fontFamily=Times New Roman;" vertex="1" parent="1">
          <mxGeometry x="1380" y="1190" width="140" height="60" as="geometry" />
        </mxCell>
        <mxCell id="bblidsnoTC9VEnLcH5_G-161" style="edgeStyle=orthogonalEdgeStyle;rounded=0;orthogonalLoop=1;jettySize=auto;html=1;exitX=0.5;exitY=1;exitDx=0;exitDy=0;entryX=0.5;entryY=0;entryDx=0;entryDy=0;" edge="1" parent="1" source="bblidsnoTC9VEnLcH5_G-156" target="bblidsnoTC9VEnLcH5_G-160">
          <mxGeometry relative="1" as="geometry" />
        </mxCell>
        <mxCell id="bblidsnoTC9VEnLcH5_G-156" value="model_max_execution_model_fc_d_es_forecast_data_informe_desvios_sap&amp;nbsp;" style="rounded=0;whiteSpace=wrap;html=1;fillColor=#f8cecc;strokeColor=#b85450;fontSize=10;fontFamily=Times New Roman;" vertex="1" parent="1">
          <mxGeometry x="1100" y="1320" width="330" height="60" as="geometry" />
        </mxCell>
        <mxCell id="bblidsnoTC9VEnLcH5_G-167" style="edgeStyle=orthogonalEdgeStyle;rounded=0;orthogonalLoop=1;jettySize=auto;html=1;exitX=0.5;exitY=1;exitDx=0;exitDy=0;entryX=0.5;entryY=0;entryDx=0;entryDy=0;" edge="1" parent="1" source="bblidsnoTC9VEnLcH5_G-160" target="bblidsnoTC9VEnLcH5_G-165">
          <mxGeometry relative="1" as="geometry" />
        </mxCell>
        <mxCell id="bblidsnoTC9VEnLcH5_G-160" value="desvio_diario_es_sap&amp;nbsp;" style="rounded=0;whiteSpace=wrap;html=1;fillColor=#f8cecc;strokeColor=#b85450;fontSize=10;fontFamily=Times New Roman;" vertex="1" parent="1">
          <mxGeometry x="1195" y="1420" width="140" height="60" as="geometry" />
        </mxCell>
        <mxCell id="bblidsnoTC9VEnLcH5_G-164" style="edgeStyle=orthogonalEdgeStyle;rounded=0;orthogonalLoop=1;jettySize=auto;html=1;exitX=0;exitY=0.5;exitDx=0;exitDy=0;entryX=1;entryY=0.5;entryDx=0;entryDy=0;" edge="1" parent="1" source="bblidsnoTC9VEnLcH5_G-163" target="bblidsnoTC9VEnLcH5_G-160">
          <mxGeometry relative="1" as="geometry" />
        </mxCell>
        <mxCell id="bblidsnoTC9VEnLcH5_G-163" value="ods_fenix_zfic_t_cuadre" style="rounded=0;whiteSpace=wrap;html=1;fillColor=#dae8fc;strokeColor=#6c8ebf;fontSize=10;" vertex="1" parent="1">
          <mxGeometry x="1430" y="1420" width="140" height="60" as="geometry" />
        </mxCell>
        <mxCell id="bblidsnoTC9VEnLcH5_G-169" style="edgeStyle=orthogonalEdgeStyle;rounded=0;orthogonalLoop=1;jettySize=auto;html=1;exitX=1;exitY=0.5;exitDx=0;exitDy=0;entryX=0;entryY=0.5;entryDx=0;entryDy=0;" edge="1" parent="1" source="bblidsnoTC9VEnLcH5_G-165" target="bblidsnoTC9VEnLcH5_G-168">
          <mxGeometry relative="1" as="geometry" />
        </mxCell>
        <mxCell id="bblidsnoTC9VEnLcH5_G-165" value="desvio_diario_es" style="rounded=0;whiteSpace=wrap;html=1;fillColor=#f8cecc;strokeColor=#b85450;fontSize=10;" vertex="1" parent="1">
          <mxGeometry x="1030" y="1530" width="150" height="60" as="geometry" />
        </mxCell>
        <mxCell id="bblidsnoTC9VEnLcH5_G-168" value="desvio_diario_es_hist" style="rounded=0;whiteSpace=wrap;html=1;fillColor=#f8cecc;strokeColor=#b85450;fontSize=10;" vertex="1" parent="1">
          <mxGeometry x="1260" y="1530" width="150" height="60" as="geometry" />
        </mxCell>
      </root>
    </mxGraphModel>
  </diagram>
  <diagram name="Portugal" id="n7BkfjG_Uqre_2wxHTgl">
    <mxGraphModel dx="1434" dy="731" grid="1" gridSize="10" guides="1" tooltips="1" connect="1" arrows="1" fold="1" page="1" pageScale="1" pageWidth="850" pageHeight="1100" math="0" shadow="0">
      <root>
        <mxCell id="a9asF_GVmqtu390SuNol-0" />
        <mxCell id="a9asF_GVmqtu390SuNol-1" parent="a9asF_GVmqtu390SuNol-0" />
        <mxCell id="a9asF_GVmqtu390SuNol-9" style="edgeStyle=orthogonalEdgeStyle;rounded=0;orthogonalLoop=1;jettySize=auto;html=1;exitX=0;exitY=0.5;exitDx=0;exitDy=0;entryX=1;entryY=0.5;entryDx=0;entryDy=0;" edge="1" parent="a9asF_GVmqtu390SuNol-1" source="a9asF_GVmqtu390SuNol-10" target="a9asF_GVmqtu390SuNol-14">
          <mxGeometry relative="1" as="geometry" />
        </mxCell>
        <mxCell id="a9asF_GVmqtu390SuNol-10" value="ods_ml_t1obcob" style="rounded=0;whiteSpace=wrap;html=1;fillColor=#dae8fc;strokeColor=#6c8ebf;fontSize=10;" vertex="1" parent="a9asF_GVmqtu390SuNol-1">
          <mxGeometry x="880" y="130" width="140" height="60" as="geometry" />
        </mxCell>
        <mxCell id="a9asF_GVmqtu390SuNol-12" style="edgeStyle=orthogonalEdgeStyle;rounded=0;orthogonalLoop=1;jettySize=auto;html=1;exitX=0.5;exitY=1;exitDx=0;exitDy=0;entryX=0.5;entryY=0;entryDx=0;entryDy=0;" edge="1" parent="a9asF_GVmqtu390SuNol-1" source="a9asF_GVmqtu390SuNol-14" target="a9asF_GVmqtu390SuNol-26">
          <mxGeometry relative="1" as="geometry" />
        </mxCell>
        <mxCell id="wHGxuFIHeY0LG5LxEPxP-0" style="edgeStyle=orthogonalEdgeStyle;rounded=0;orthogonalLoop=1;jettySize=auto;html=1;exitX=0.5;exitY=1;exitDx=0;exitDy=0;entryX=0;entryY=0.5;entryDx=0;entryDy=0;" edge="1" parent="a9asF_GVmqtu390SuNol-1" source="a9asF_GVmqtu390SuNol-14" target="a9asF_GVmqtu390SuNol-32">
          <mxGeometry relative="1" as="geometry">
            <Array as="points">
              <mxPoint x="680" y="180" />
              <mxPoint x="530" y="180" />
              <mxPoint x="530" y="450" />
            </Array>
          </mxGeometry>
        </mxCell>
        <mxCell id="a9asF_GVmqtu390SuNol-14" value="tmp_obligaciones_por_20_desvios&amp;nbsp;" style="rounded=0;whiteSpace=wrap;html=1;fontSize=10;fillColor=#f8cecc;strokeColor=#b85450;" vertex="1" parent="a9asF_GVmqtu390SuNol-1">
          <mxGeometry x="590" y="100" width="180" height="60" as="geometry" />
        </mxCell>
        <mxCell id="a9asF_GVmqtu390SuNol-15" style="edgeStyle=orthogonalEdgeStyle;rounded=0;orthogonalLoop=1;jettySize=auto;html=1;exitX=1;exitY=0.5;exitDx=0;exitDy=0;entryX=0;entryY=0.5;entryDx=0;entryDy=0;" edge="1" parent="a9asF_GVmqtu390SuNol-1" source="a9asF_GVmqtu390SuNol-16" target="a9asF_GVmqtu390SuNol-14">
          <mxGeometry relative="1" as="geometry" />
        </mxCell>
        <mxCell id="a9asF_GVmqtu390SuNol-16" value="ods_ml_T1CLCES" style="rounded=0;whiteSpace=wrap;html=1;fillColor=#dae8fc;strokeColor=#6c8ebf;fontSize=10;" vertex="1" parent="a9asF_GVmqtu390SuNol-1">
          <mxGeometry x="370" y="70" width="140" height="60" as="geometry" />
        </mxCell>
        <mxCell id="a9asF_GVmqtu390SuNol-17" style="edgeStyle=orthogonalEdgeStyle;rounded=0;orthogonalLoop=1;jettySize=auto;html=1;exitX=0.5;exitY=1;exitDx=0;exitDy=0;entryX=0.5;entryY=0;entryDx=0;entryDy=0;" edge="1" parent="a9asF_GVmqtu390SuNol-1" source="a9asF_GVmqtu390SuNol-18" target="a9asF_GVmqtu390SuNol-14">
          <mxGeometry relative="1" as="geometry" />
        </mxCell>
        <mxCell id="a9asF_GVmqtu390SuNol-18" value="&lt;span style=&quot;font-size: 10px; line-height: 107%; font-family: Calibri, sans-serif;&quot;&gt;ods_ml_T1OBABO&lt;/span&gt;" style="rounded=0;whiteSpace=wrap;html=1;fillColor=#dae8fc;strokeColor=#6c8ebf;fontSize=10;" vertex="1" parent="a9asF_GVmqtu390SuNol-1">
          <mxGeometry x="540" y="10" width="140" height="60" as="geometry" />
        </mxCell>
        <mxCell id="a9asF_GVmqtu390SuNol-19" style="edgeStyle=orthogonalEdgeStyle;rounded=0;orthogonalLoop=1;jettySize=auto;html=1;exitX=0.5;exitY=1;exitDx=0;exitDy=0;entryX=0.5;entryY=0;entryDx=0;entryDy=0;" edge="1" parent="a9asF_GVmqtu390SuNol-1" source="a9asF_GVmqtu390SuNol-20" target="a9asF_GVmqtu390SuNol-14">
          <mxGeometry relative="1" as="geometry" />
        </mxCell>
        <mxCell id="a9asF_GVmqtu390SuNol-20" value="&lt;p style=&quot;text-indent: -18pt; font-size: 10px;&quot; class=&quot;MsoListParagraph&quot;&gt;ods_ml_T1FACTU&lt;/p&gt;" style="rounded=0;whiteSpace=wrap;html=1;fillColor=#dae8fc;strokeColor=#6c8ebf;fontSize=10;" vertex="1" parent="a9asF_GVmqtu390SuNol-1">
          <mxGeometry x="680" y="10" width="140" height="60" as="geometry" />
        </mxCell>
        <mxCell id="a9asF_GVmqtu390SuNol-21" style="edgeStyle=orthogonalEdgeStyle;rounded=0;orthogonalLoop=1;jettySize=auto;html=1;exitX=0;exitY=0.5;exitDx=0;exitDy=0;entryX=1;entryY=0.5;entryDx=0;entryDy=0;" edge="1" parent="a9asF_GVmqtu390SuNol-1" source="a9asF_GVmqtu390SuNol-22" target="a9asF_GVmqtu390SuNol-14">
          <mxGeometry relative="1" as="geometry" />
        </mxCell>
        <mxCell id="a9asF_GVmqtu390SuNol-22" value="ods_ml_T1FACDA" style="rounded=0;whiteSpace=wrap;html=1;fillColor=#dae8fc;strokeColor=#6c8ebf;fontSize=10;" vertex="1" parent="a9asF_GVmqtu390SuNol-1">
          <mxGeometry x="880" y="70" width="140" height="60" as="geometry" />
        </mxCell>
        <mxCell id="a9asF_GVmqtu390SuNol-23" style="edgeStyle=orthogonalEdgeStyle;rounded=0;orthogonalLoop=1;jettySize=auto;html=1;exitX=1;exitY=0.5;exitDx=0;exitDy=0;entryX=0;entryY=0.5;entryDx=0;entryDy=0;" edge="1" parent="a9asF_GVmqtu390SuNol-1" source="a9asF_GVmqtu390SuNol-24" target="a9asF_GVmqtu390SuNol-14">
          <mxGeometry relative="1" as="geometry" />
        </mxCell>
        <mxCell id="a9asF_GVmqtu390SuNol-24" value="ods_ml_t1oblig" style="rounded=0;whiteSpace=wrap;html=1;fillColor=#dae8fc;strokeColor=#6c8ebf;fontSize=10;" vertex="1" parent="a9asF_GVmqtu390SuNol-1">
          <mxGeometry x="370" y="130" width="140" height="60" as="geometry" />
        </mxCell>
        <mxCell id="a9asF_GVmqtu390SuNol-25" style="edgeStyle=orthogonalEdgeStyle;rounded=0;orthogonalLoop=1;jettySize=auto;html=1;exitX=0.5;exitY=1;exitDx=0;exitDy=0;" edge="1" parent="a9asF_GVmqtu390SuNol-1" source="a9asF_GVmqtu390SuNol-26" target="a9asF_GVmqtu390SuNol-28">
          <mxGeometry relative="1" as="geometry" />
        </mxCell>
        <mxCell id="a9asF_GVmqtu390SuNol-26" value="tmp_obligaciones_contratos_T3RESOP_por_20_desvios&amp;nbsp;" style="rounded=0;whiteSpace=wrap;html=1;fillColor=#f8cecc;strokeColor=#b85450;fontSize=10;" vertex="1" parent="a9asF_GVmqtu390SuNol-1">
          <mxGeometry x="537.5" y="210" width="285" height="60" as="geometry" />
        </mxCell>
        <mxCell id="a9asF_GVmqtu390SuNol-27" value="" style="edgeStyle=orthogonalEdgeStyle;rounded=0;orthogonalLoop=1;jettySize=auto;html=1;" edge="1" parent="a9asF_GVmqtu390SuNol-1" source="a9asF_GVmqtu390SuNol-28" target="a9asF_GVmqtu390SuNol-32">
          <mxGeometry relative="1" as="geometry" />
        </mxCell>
        <mxCell id="a9asF_GVmqtu390SuNol-28" value="tmp_Movimientos_T3RESOP_por_20_desvios" style="rounded=0;whiteSpace=wrap;html=1;fillColor=#f8cecc;strokeColor=#b85450;fontSize=10;" vertex="1" parent="a9asF_GVmqtu390SuNol-1">
          <mxGeometry x="568.75" y="320" width="222.5" height="60" as="geometry" />
        </mxCell>
        <mxCell id="a9asF_GVmqtu390SuNol-29" style="edgeStyle=orthogonalEdgeStyle;rounded=0;orthogonalLoop=1;jettySize=auto;html=1;entryX=0.5;entryY=0;entryDx=0;entryDy=0;" edge="1" parent="a9asF_GVmqtu390SuNol-1" source="a9asF_GVmqtu390SuNol-30" target="a9asF_GVmqtu390SuNol-28">
          <mxGeometry relative="1" as="geometry" />
        </mxCell>
        <mxCell id="a9asF_GVmqtu390SuNol-30" value="ods_ml_T3RESOP" style="rounded=0;whiteSpace=wrap;html=1;fillColor=#dae8fc;strokeColor=#6c8ebf;fontSize=10;" vertex="1" parent="a9asF_GVmqtu390SuNol-1">
          <mxGeometry x="880" y="270" width="140" height="60" as="geometry" />
        </mxCell>
        <mxCell id="wHGxuFIHeY0LG5LxEPxP-1" style="edgeStyle=orthogonalEdgeStyle;rounded=0;orthogonalLoop=1;jettySize=auto;html=1;exitX=0.5;exitY=1;exitDx=0;exitDy=0;entryX=0.5;entryY=0;entryDx=0;entryDy=0;" edge="1" parent="a9asF_GVmqtu390SuNol-1" source="a9asF_GVmqtu390SuNol-32" target="a9asF_GVmqtu390SuNol-40">
          <mxGeometry relative="1" as="geometry" />
        </mxCell>
        <mxCell id="a9asF_GVmqtu390SuNol-32" value="tmp_Movimientos_Obligacion_por_20_desvios" style="rounded=0;whiteSpace=wrap;html=1;fontSize=10;fillColor=#f8cecc;strokeColor=#b85450;" vertex="1" parent="a9asF_GVmqtu390SuNol-1">
          <mxGeometry x="556.25" y="420" width="247.5" height="60" as="geometry" />
        </mxCell>
        <mxCell id="a9asF_GVmqtu390SuNol-33" value="" style="edgeStyle=orthogonalEdgeStyle;rounded=0;orthogonalLoop=1;jettySize=auto;html=1;" edge="1" parent="a9asF_GVmqtu390SuNol-1" source="a9asF_GVmqtu390SuNol-34" target="a9asF_GVmqtu390SuNol-32">
          <mxGeometry relative="1" as="geometry" />
        </mxCell>
        <mxCell id="a9asF_GVmqtu390SuNol-34" value="ods_ml_t1movob" style="rounded=0;whiteSpace=wrap;html=1;fillColor=#dae8fc;strokeColor=#6c8ebf;fontSize=10;" vertex="1" parent="a9asF_GVmqtu390SuNol-1">
          <mxGeometry x="880" y="370" width="140" height="60" as="geometry" />
        </mxCell>
        <mxCell id="a9asF_GVmqtu390SuNol-35" value="" style="edgeStyle=orthogonalEdgeStyle;rounded=0;orthogonalLoop=1;jettySize=auto;html=1;" edge="1" parent="a9asF_GVmqtu390SuNol-1" source="a9asF_GVmqtu390SuNol-36" target="a9asF_GVmqtu390SuNol-32">
          <mxGeometry relative="1" as="geometry" />
        </mxCell>
        <mxCell id="a9asF_GVmqtu390SuNol-36" value="ods_ml_T1TRANF" style="rounded=0;whiteSpace=wrap;html=1;fillColor=#dae8fc;strokeColor=#6c8ebf;fontSize=10;" vertex="1" parent="a9asF_GVmqtu390SuNol-1">
          <mxGeometry x="880" y="450" width="140" height="60" as="geometry" />
        </mxCell>
        <mxCell id="wHGxuFIHeY0LG5LxEPxP-7" style="edgeStyle=orthogonalEdgeStyle;rounded=0;orthogonalLoop=1;jettySize=auto;html=1;exitX=0.5;exitY=1;exitDx=0;exitDy=0;entryX=0;entryY=0.5;entryDx=0;entryDy=0;" edge="1" parent="a9asF_GVmqtu390SuNol-1" source="a9asF_GVmqtu390SuNol-40" target="a9asF_GVmqtu390SuNol-66">
          <mxGeometry relative="1" as="geometry">
            <Array as="points">
              <mxPoint x="680" y="940" />
            </Array>
          </mxGeometry>
        </mxCell>
        <mxCell id="a9asF_GVmqtu390SuNol-40" value="tmp_Cobros_Trazable_por_20_desvios" style="rounded=0;whiteSpace=wrap;html=1;fillColor=#f8cecc;strokeColor=#b85450;fontSize=10;" vertex="1" parent="a9asF_GVmqtu390SuNol-1">
          <mxGeometry x="575" y="530" width="210" height="60" as="geometry" />
        </mxCell>
        <mxCell id="a9asF_GVmqtu390SuNol-47" style="edgeStyle=orthogonalEdgeStyle;rounded=0;orthogonalLoop=1;jettySize=auto;html=1;exitX=0;exitY=0.5;exitDx=0;exitDy=0;entryX=1;entryY=0.5;entryDx=0;entryDy=0;" edge="1" parent="a9asF_GVmqtu390SuNol-1" source="a9asF_GVmqtu390SuNol-48" target="a9asF_GVmqtu390SuNol-50">
          <mxGeometry relative="1" as="geometry" />
        </mxCell>
        <mxCell id="a9asF_GVmqtu390SuNol-48" value="ods_ml_T1OBNEG" style="rounded=0;whiteSpace=wrap;html=1;fillColor=#dae8fc;strokeColor=#6c8ebf;fontSize=10;" vertex="1" parent="a9asF_GVmqtu390SuNol-1">
          <mxGeometry x="1305" y="660" width="100" height="60" as="geometry" />
        </mxCell>
        <mxCell id="a9asF_GVmqtu390SuNol-49" style="edgeStyle=orthogonalEdgeStyle;rounded=0;orthogonalLoop=1;jettySize=auto;html=1;exitX=0.5;exitY=1;exitDx=0;exitDy=0;entryX=0.5;entryY=0;entryDx=0;entryDy=0;" edge="1" parent="a9asF_GVmqtu390SuNol-1" source="a9asF_GVmqtu390SuNol-50" target="a9asF_GVmqtu390SuNol-64">
          <mxGeometry relative="1" as="geometry" />
        </mxCell>
        <mxCell id="a9asF_GVmqtu390SuNol-50" value="tmp_Cobros_No_Trazable_por_20_desvios" style="rounded=0;whiteSpace=wrap;html=1;fontSize=10;fillColor=#f8cecc;strokeColor=#b85450;" vertex="1" parent="a9asF_GVmqtu390SuNol-1">
          <mxGeometry x="1015" y="670" width="230" height="60" as="geometry" />
        </mxCell>
        <mxCell id="a9asF_GVmqtu390SuNol-51" style="edgeStyle=orthogonalEdgeStyle;rounded=0;orthogonalLoop=1;jettySize=auto;html=1;exitX=1;exitY=0.5;exitDx=0;exitDy=0;entryX=0;entryY=0.5;entryDx=0;entryDy=0;" edge="1" parent="a9asF_GVmqtu390SuNol-1" source="a9asF_GVmqtu390SuNol-52" target="a9asF_GVmqtu390SuNol-50">
          <mxGeometry relative="1" as="geometry" />
        </mxCell>
        <mxCell id="a9asF_GVmqtu390SuNol-52" value="ods_ml_T1FACTU" style="rounded=0;whiteSpace=wrap;html=1;fillColor=#dae8fc;strokeColor=#6c8ebf;fontSize=10;" vertex="1" parent="a9asF_GVmqtu390SuNol-1">
          <mxGeometry x="860" y="590" width="110" height="60" as="geometry" />
        </mxCell>
        <mxCell id="wHGxuFIHeY0LG5LxEPxP-6" style="edgeStyle=orthogonalEdgeStyle;rounded=0;orthogonalLoop=1;jettySize=auto;html=1;exitX=0.5;exitY=1;exitDx=0;exitDy=0;entryX=0.5;entryY=0;entryDx=0;entryDy=0;" edge="1" parent="a9asF_GVmqtu390SuNol-1" source="a9asF_GVmqtu390SuNol-54" target="a9asF_GVmqtu390SuNol-50">
          <mxGeometry relative="1" as="geometry">
            <Array as="points">
              <mxPoint x="1040" y="640" />
              <mxPoint x="1130" y="640" />
            </Array>
          </mxGeometry>
        </mxCell>
        <mxCell id="a9asF_GVmqtu390SuNol-54" value="ods_ml_t1tranf" style="rounded=0;whiteSpace=wrap;html=1;fillColor=#dae8fc;strokeColor=#6c8ebf;fontSize=10;" vertex="1" parent="a9asF_GVmqtu390SuNol-1">
          <mxGeometry x="1000" y="550" width="80" height="60" as="geometry" />
        </mxCell>
        <mxCell id="a9asF_GVmqtu390SuNol-55" style="edgeStyle=orthogonalEdgeStyle;rounded=0;orthogonalLoop=1;jettySize=auto;html=1;exitX=0.5;exitY=1;exitDx=0;exitDy=0;entryX=0.5;entryY=0;entryDx=0;entryDy=0;" edge="1" parent="a9asF_GVmqtu390SuNol-1" source="a9asF_GVmqtu390SuNol-56" target="a9asF_GVmqtu390SuNol-50">
          <mxGeometry relative="1" as="geometry">
            <Array as="points">
              <mxPoint x="1230" y="640" />
              <mxPoint x="1130" y="640" />
            </Array>
          </mxGeometry>
        </mxCell>
        <mxCell id="a9asF_GVmqtu390SuNol-56" value="&lt;blockquote style=&quot;margin: 0 0 0 40px; border: none; padding: 0px;&quot;&gt;&lt;p style=&quot;text-indent: -18pt; font-size: 10px;&quot; class=&quot;MsoListParagraph&quot;&gt;ods_ml_t1tranf&lt;/p&gt;&lt;/blockquote&gt;" style="rounded=0;whiteSpace=wrap;html=1;fillColor=#dae8fc;strokeColor=#6c8ebf;fontSize=10;align=left;" vertex="1" parent="a9asF_GVmqtu390SuNol-1">
          <mxGeometry x="1180" y="550" width="100" height="60" as="geometry" />
        </mxCell>
        <mxCell id="a9asF_GVmqtu390SuNol-57" style="edgeStyle=orthogonalEdgeStyle;rounded=0;orthogonalLoop=1;jettySize=auto;html=1;exitX=0;exitY=0.5;exitDx=0;exitDy=0;entryX=1;entryY=0.5;entryDx=0;entryDy=0;" edge="1" parent="a9asF_GVmqtu390SuNol-1" source="a9asF_GVmqtu390SuNol-58" target="a9asF_GVmqtu390SuNol-50">
          <mxGeometry relative="1" as="geometry" />
        </mxCell>
        <mxCell id="a9asF_GVmqtu390SuNol-58" value="ods_ml_T1FACDA" style="rounded=0;whiteSpace=wrap;html=1;fillColor=#dae8fc;strokeColor=#6c8ebf;fontSize=10;" vertex="1" parent="a9asF_GVmqtu390SuNol-1">
          <mxGeometry x="1305" y="600" width="100" height="60" as="geometry" />
        </mxCell>
        <mxCell id="a9asF_GVmqtu390SuNol-59" style="edgeStyle=orthogonalEdgeStyle;rounded=0;orthogonalLoop=1;jettySize=auto;html=1;exitX=1;exitY=0.5;exitDx=0;exitDy=0;entryX=0;entryY=0.5;entryDx=0;entryDy=0;" edge="1" parent="a9asF_GVmqtu390SuNol-1" source="a9asF_GVmqtu390SuNol-60" target="a9asF_GVmqtu390SuNol-50">
          <mxGeometry relative="1" as="geometry" />
        </mxCell>
        <mxCell id="a9asF_GVmqtu390SuNol-60" value="ods_ml_T1CTRCF" style="rounded=0;whiteSpace=wrap;html=1;fillColor=#dae8fc;strokeColor=#6c8ebf;fontSize=10;" vertex="1" parent="a9asF_GVmqtu390SuNol-1">
          <mxGeometry x="860" y="650" width="110" height="60" as="geometry" />
        </mxCell>
        <mxCell id="wHGxuFIHeY0LG5LxEPxP-4" style="edgeStyle=orthogonalEdgeStyle;rounded=0;orthogonalLoop=1;jettySize=auto;html=1;exitX=0.5;exitY=1;exitDx=0;exitDy=0;entryX=0.5;entryY=0;entryDx=0;entryDy=0;" edge="1" parent="a9asF_GVmqtu390SuNol-1" source="a9asF_GVmqtu390SuNol-62" target="a9asF_GVmqtu390SuNol-50">
          <mxGeometry relative="1" as="geometry" />
        </mxCell>
        <mxCell id="a9asF_GVmqtu390SuNol-62" value="&lt;blockquote style=&quot;margin: 0 0 0 40px; border: none; padding: 0px;&quot;&gt;&lt;p style=&quot;text-indent: -18pt; font-size: 10px;&quot; class=&quot;MsoListParagraph&quot;&gt;ods_ml_t3resop&lt;/p&gt;&lt;/blockquote&gt;" style="rounded=0;whiteSpace=wrap;html=1;fillColor=#dae8fc;strokeColor=#6c8ebf;fontSize=10;align=left;" vertex="1" parent="a9asF_GVmqtu390SuNol-1">
          <mxGeometry x="1080" y="550" width="100" height="60" as="geometry" />
        </mxCell>
        <mxCell id="Xmz2wC6jUmYsKuCKz_Pg-13" style="edgeStyle=orthogonalEdgeStyle;rounded=0;orthogonalLoop=1;jettySize=auto;html=1;exitX=0.5;exitY=1;exitDx=0;exitDy=0;entryX=0.5;entryY=0;entryDx=0;entryDy=0;" edge="1" parent="a9asF_GVmqtu390SuNol-1" source="a9asF_GVmqtu390SuNol-64" target="a9asF_GVmqtu390SuNol-66">
          <mxGeometry relative="1" as="geometry" />
        </mxCell>
        <mxCell id="a9asF_GVmqtu390SuNol-64" value="tmp_car_cobros_no_trazable_esp_por_20_desvios" style="rounded=0;whiteSpace=wrap;html=1;fontSize=10;fillColor=#f8cecc;strokeColor=#b85450;" vertex="1" parent="a9asF_GVmqtu390SuNol-1">
          <mxGeometry x="1005" y="790" width="250" height="60" as="geometry" />
        </mxCell>
        <mxCell id="Xmz2wC6jUmYsKuCKz_Pg-17" style="edgeStyle=orthogonalEdgeStyle;rounded=0;orthogonalLoop=1;jettySize=auto;html=1;exitX=0.5;exitY=1;exitDx=0;exitDy=0;entryX=0;entryY=0.5;entryDx=0;entryDy=0;" edge="1" parent="a9asF_GVmqtu390SuNol-1" source="a9asF_GVmqtu390SuNol-66" target="Xmz2wC6jUmYsKuCKz_Pg-14">
          <mxGeometry relative="1" as="geometry" />
        </mxCell>
        <mxCell id="a9asF_GVmqtu390SuNol-66" value="P03_Cobros_Trazable_No_Trazables_car_por_20_desvios&amp;nbsp;" style="rounded=0;whiteSpace=wrap;html=1;fontSize=10;fillColor=#f8cecc;strokeColor=#b85450;" vertex="1" parent="a9asF_GVmqtu390SuNol-1">
          <mxGeometry x="982.5" y="910" width="295" height="60" as="geometry" />
        </mxCell>
        <mxCell id="a9asF_GVmqtu390SuNol-67" style="edgeStyle=orthogonalEdgeStyle;rounded=0;orthogonalLoop=1;jettySize=auto;html=1;exitX=0.5;exitY=1;exitDx=0;exitDy=0;entryX=0.5;entryY=0;entryDx=0;entryDy=0;" edge="1" parent="a9asF_GVmqtu390SuNol-1" source="a9asF_GVmqtu390SuNol-68" target="a9asF_GVmqtu390SuNol-71">
          <mxGeometry relative="1" as="geometry" />
        </mxCell>
        <mxCell id="a9asF_GVmqtu390SuNol-68" value="tmp_P05_Cobros_Trazable_No_Trazables_por_desvios" style="rounded=0;whiteSpace=wrap;html=1;fontSize=10;fillColor=#f8cecc;strokeColor=#b85450;" vertex="1" parent="a9asF_GVmqtu390SuNol-1">
          <mxGeometry x="1323.75" y="1130" width="270" height="60" as="geometry" />
        </mxCell>
        <mxCell id="a9asF_GVmqtu390SuNol-69" value="" style="edgeStyle=orthogonalEdgeStyle;rounded=0;orthogonalLoop=1;jettySize=auto;html=1;" edge="1" parent="a9asF_GVmqtu390SuNol-1" source="a9asF_GVmqtu390SuNol-71" target="a9asF_GVmqtu390SuNol-76">
          <mxGeometry relative="1" as="geometry">
            <Array as="points">
              <mxPoint x="1459" y="1380" />
              <mxPoint x="1365" y="1380" />
            </Array>
          </mxGeometry>
        </mxCell>
        <mxCell id="a9asF_GVmqtu390SuNol-70" style="edgeStyle=orthogonalEdgeStyle;rounded=0;orthogonalLoop=1;jettySize=auto;html=1;exitX=0;exitY=0.5;exitDx=0;exitDy=0;entryX=0;entryY=0.5;entryDx=0;entryDy=0;" edge="1" parent="a9asF_GVmqtu390SuNol-1" source="a9asF_GVmqtu390SuNol-71" target="a9asF_GVmqtu390SuNol-78">
          <mxGeometry relative="1" as="geometry" />
        </mxCell>
        <mxCell id="a9asF_GVmqtu390SuNol-71" value="tmp_car_cobro_drivers_por_diario_desvios" style="rounded=0;whiteSpace=wrap;html=1;fontSize=10;fillColor=#f8cecc;strokeColor=#b85450;" vertex="1" parent="a9asF_GVmqtu390SuNol-1">
          <mxGeometry x="1353.75" y="1280" width="210" height="60" as="geometry" />
        </mxCell>
        <mxCell id="a9asF_GVmqtu390SuNol-73" style="edgeStyle=orthogonalEdgeStyle;rounded=0;orthogonalLoop=1;jettySize=auto;html=1;exitX=0.5;exitY=1;exitDx=0;exitDy=0;entryX=0;entryY=0.5;entryDx=0;entryDy=0;" edge="1" parent="a9asF_GVmqtu390SuNol-1" source="a9asF_GVmqtu390SuNol-74" target="a9asF_GVmqtu390SuNol-100">
          <mxGeometry relative="1" as="geometry">
            <Array as="points">
              <mxPoint x="1575" y="1590" />
              <mxPoint x="1975" y="1590" />
              <mxPoint x="1975" y="1630" />
            </Array>
          </mxGeometry>
        </mxCell>
        <mxCell id="Xmz2wC6jUmYsKuCKz_Pg-20" style="edgeStyle=orthogonalEdgeStyle;rounded=0;orthogonalLoop=1;jettySize=auto;html=1;exitX=0;exitY=0.5;exitDx=0;exitDy=0;entryX=0.5;entryY=0;entryDx=0;entryDy=0;" edge="1" parent="a9asF_GVmqtu390SuNol-1" source="a9asF_GVmqtu390SuNol-74" target="a9asF_GVmqtu390SuNol-76">
          <mxGeometry relative="1" as="geometry">
            <Array as="points">
              <mxPoint x="1365" y="1380" />
            </Array>
          </mxGeometry>
        </mxCell>
        <mxCell id="a9asF_GVmqtu390SuNol-74" value="master_var_typeofday" style="rounded=0;whiteSpace=wrap;html=1;fillColor=#f8cecc;strokeColor=#b85450;fontSize=10;" vertex="1" parent="a9asF_GVmqtu390SuNol-1">
          <mxGeometry x="1528.75" y="1350" width="140" height="60" as="geometry" />
        </mxCell>
        <mxCell id="a9asF_GVmqtu390SuNol-75" style="edgeStyle=orthogonalEdgeStyle;rounded=0;orthogonalLoop=1;jettySize=auto;html=1;exitX=0.5;exitY=1;exitDx=0;exitDy=0;entryX=0.5;entryY=0;entryDx=0;entryDy=0;" edge="1" parent="a9asF_GVmqtu390SuNol-1" source="a9asF_GVmqtu390SuNol-76" target="a9asF_GVmqtu390SuNol-78">
          <mxGeometry relative="1" as="geometry" />
        </mxCell>
        <mxCell id="a9asF_GVmqtu390SuNol-76" value="&lt;span style=&quot;font-size: 10px; line-height: 107%; font-family: Calibri, sans-serif;&quot;&gt;tmp_master_dias_segmentos_desvios_por&lt;/span&gt;" style="rounded=0;whiteSpace=wrap;html=1;fillColor=#f8cecc;strokeColor=#b85450;fontSize=10;" vertex="1" parent="a9asF_GVmqtu390SuNol-1">
          <mxGeometry x="1275" y="1430" width="180" height="60" as="geometry" />
        </mxCell>
        <mxCell id="a9asF_GVmqtu390SuNol-77" style="edgeStyle=orthogonalEdgeStyle;rounded=0;orthogonalLoop=1;jettySize=auto;html=1;exitX=0.5;exitY=1;exitDx=0;exitDy=0;entryX=0.5;entryY=0;entryDx=0;entryDy=0;" edge="1" parent="a9asF_GVmqtu390SuNol-1" source="a9asF_GVmqtu390SuNol-78" target="a9asF_GVmqtu390SuNol-92">
          <mxGeometry relative="1" as="geometry" />
        </mxCell>
        <mxCell id="a9asF_GVmqtu390SuNol-78" value="tmp_car_fc_d_por_desvios" style="rounded=0;whiteSpace=wrap;html=1;fillColor=#f8cecc;strokeColor=#b85450;fontSize=10;" vertex="1" parent="a9asF_GVmqtu390SuNol-1">
          <mxGeometry x="1275" y="1520" width="180" height="60" as="geometry" />
        </mxCell>
        <mxCell id="a9asF_GVmqtu390SuNol-79" style="edgeStyle=orthogonalEdgeStyle;rounded=0;orthogonalLoop=1;jettySize=auto;html=1;exitX=0.5;exitY=1;exitDx=0;exitDy=0;entryX=0.5;entryY=0;entryDx=0;entryDy=0;" edge="1" parent="a9asF_GVmqtu390SuNol-1" source="a9asF_GVmqtu390SuNol-80" target="a9asF_GVmqtu390SuNol-85">
          <mxGeometry relative="1" as="geometry" />
        </mxCell>
        <mxCell id="a9asF_GVmqtu390SuNol-80" value="master_desvios_mes_por" style="rounded=0;whiteSpace=wrap;html=1;fillColor=#f8cecc;strokeColor=#b85450;fontSize=10;fontFamily=Times New Roman;" vertex="1" parent="a9asF_GVmqtu390SuNol-1">
          <mxGeometry x="1700" y="1370" width="140" height="60" as="geometry" />
        </mxCell>
        <mxCell id="a9asF_GVmqtu390SuNol-81" style="edgeStyle=orthogonalEdgeStyle;rounded=0;orthogonalLoop=1;jettySize=auto;html=1;exitX=0.5;exitY=1;exitDx=0;exitDy=0;entryX=0.5;entryY=0;entryDx=0;entryDy=0;" edge="1" parent="a9asF_GVmqtu390SuNol-1" source="a9asF_GVmqtu390SuNol-83" target="a9asF_GVmqtu390SuNol-80">
          <mxGeometry relative="1" as="geometry" />
        </mxCell>
        <mxCell id="a9asF_GVmqtu390SuNol-82" style="edgeStyle=orthogonalEdgeStyle;rounded=0;orthogonalLoop=1;jettySize=auto;html=1;exitX=1;exitY=0.5;exitDx=0;exitDy=0;entryX=0.5;entryY=0;entryDx=0;entryDy=0;" edge="1" parent="a9asF_GVmqtu390SuNol-1" source="a9asF_GVmqtu390SuNol-83" target="a9asF_GVmqtu390SuNol-96">
          <mxGeometry relative="1" as="geometry" />
        </mxCell>
        <mxCell id="a9asF_GVmqtu390SuNol-83" value="master_models_execution_por" style="rounded=0;whiteSpace=wrap;html=1;fillColor=#f8cecc;strokeColor=#b85450;fontSize=10;fontFamily=Times New Roman;" vertex="1" parent="a9asF_GVmqtu390SuNol-1">
          <mxGeometry x="1700" y="1270" width="140" height="60" as="geometry" />
        </mxCell>
        <mxCell id="a9asF_GVmqtu390SuNol-84" style="edgeStyle=orthogonalEdgeStyle;rounded=0;orthogonalLoop=1;jettySize=auto;html=1;exitX=0.5;exitY=1;exitDx=0;exitDy=0;entryX=0.5;entryY=0;entryDx=0;entryDy=0;" edge="1" parent="a9asF_GVmqtu390SuNol-1" source="a9asF_GVmqtu390SuNol-85" target="a9asF_GVmqtu390SuNol-90">
          <mxGeometry relative="1" as="geometry" />
        </mxCell>
        <mxCell id="a9asF_GVmqtu390SuNol-85" value="model_max_execution_model_fc_d_por_forecast_data_informe_desvio" style="rounded=0;whiteSpace=wrap;html=1;fillColor=#f8cecc;strokeColor=#b85450;fontSize=10;fontFamily=Times New Roman;" vertex="1" parent="a9asF_GVmqtu390SuNol-1">
          <mxGeometry x="1665" y="1500" width="320" height="60" as="geometry" />
        </mxCell>
        <mxCell id="a9asF_GVmqtu390SuNol-86" style="edgeStyle=orthogonalEdgeStyle;rounded=0;orthogonalLoop=1;jettySize=auto;html=1;exitX=0.5;exitY=1;exitDx=0;exitDy=0;entryX=0.5;entryY=0;entryDx=0;entryDy=0;" edge="1" parent="a9asF_GVmqtu390SuNol-1" source="a9asF_GVmqtu390SuNol-88" target="a9asF_GVmqtu390SuNol-85">
          <mxGeometry relative="1" as="geometry" />
        </mxCell>
        <mxCell id="a9asF_GVmqtu390SuNol-87" style="edgeStyle=orthogonalEdgeStyle;rounded=0;orthogonalLoop=1;jettySize=auto;html=1;exitX=1;exitY=0.5;exitDx=0;exitDy=0;entryX=0.5;entryY=0;entryDx=0;entryDy=0;" edge="1" parent="a9asF_GVmqtu390SuNol-1" source="a9asF_GVmqtu390SuNol-88" target="a9asF_GVmqtu390SuNol-98">
          <mxGeometry relative="1" as="geometry" />
        </mxCell>
        <mxCell id="a9asF_GVmqtu390SuNol-88" value="model_fc_d_por_forecast" style="rounded=0;whiteSpace=wrap;html=1;fillColor=#f8cecc;strokeColor=#b85450;fontSize=10;fontFamily=Times New Roman;" vertex="1" parent="a9asF_GVmqtu390SuNol-1">
          <mxGeometry x="1845" y="1370" width="140" height="60" as="geometry" />
        </mxCell>
        <mxCell id="a9asF_GVmqtu390SuNol-89" style="edgeStyle=orthogonalEdgeStyle;rounded=0;orthogonalLoop=1;jettySize=auto;html=1;exitX=0.5;exitY=1;exitDx=0;exitDy=0;entryX=0.5;entryY=0;entryDx=0;entryDy=0;" edge="1" parent="a9asF_GVmqtu390SuNol-1" source="a9asF_GVmqtu390SuNol-90" target="a9asF_GVmqtu390SuNol-94">
          <mxGeometry relative="1" as="geometry">
            <mxPoint x="1225" y="1710" as="targetPoint" />
          </mxGeometry>
        </mxCell>
        <mxCell id="a9asF_GVmqtu390SuNol-90" value="model_execution_grouped_por" style="rounded=0;whiteSpace=wrap;html=1;fillColor=#f8cecc;strokeColor=#b85450;fontSize=10;fontFamily=Times New Roman;" vertex="1" parent="a9asF_GVmqtu390SuNol-1">
          <mxGeometry x="1755" y="1610" width="140" height="60" as="geometry" />
        </mxCell>
        <mxCell id="a9asF_GVmqtu390SuNol-91" style="edgeStyle=orthogonalEdgeStyle;rounded=0;orthogonalLoop=1;jettySize=auto;html=1;exitX=0.5;exitY=1;exitDx=0;exitDy=0;entryX=0.5;entryY=0;entryDx=0;entryDy=0;" edge="1" parent="a9asF_GVmqtu390SuNol-1" source="a9asF_GVmqtu390SuNol-92" target="a9asF_GVmqtu390SuNol-94">
          <mxGeometry relative="1" as="geometry" />
        </mxCell>
        <mxCell id="a9asF_GVmqtu390SuNol-92" value="tmp_car_segment_aux_por" style="rounded=0;whiteSpace=wrap;html=1;fillColor=#f8cecc;strokeColor=#b85450;fontSize=10;" vertex="1" parent="a9asF_GVmqtu390SuNol-1">
          <mxGeometry x="1275" y="1610" width="180" height="60" as="geometry" />
        </mxCell>
        <mxCell id="a9asF_GVmqtu390SuNol-93" style="edgeStyle=orthogonalEdgeStyle;rounded=0;orthogonalLoop=1;jettySize=auto;html=1;exitX=1;exitY=0.5;exitDx=0;exitDy=0;entryX=0;entryY=0.5;entryDx=0;entryDy=0;" edge="1" parent="a9asF_GVmqtu390SuNol-1" source="a9asF_GVmqtu390SuNol-94" target="a9asF_GVmqtu390SuNol-104">
          <mxGeometry relative="1" as="geometry" />
        </mxCell>
        <mxCell id="a9asF_GVmqtu390SuNol-94" value="desvio_diario_por_ml" style="rounded=0;whiteSpace=wrap;html=1;fillColor=#f8cecc;strokeColor=#b85450;fontSize=10;" vertex="1" parent="a9asF_GVmqtu390SuNol-1">
          <mxGeometry x="1530" y="1710" width="150" height="60" as="geometry" />
        </mxCell>
        <mxCell id="a9asF_GVmqtu390SuNol-95" style="edgeStyle=orthogonalEdgeStyle;rounded=0;orthogonalLoop=1;jettySize=auto;html=1;exitX=0;exitY=0.5;exitDx=0;exitDy=0;entryX=0.5;entryY=0;entryDx=0;entryDy=0;" edge="1" parent="a9asF_GVmqtu390SuNol-1" source="a9asF_GVmqtu390SuNol-96" target="a9asF_GVmqtu390SuNol-98">
          <mxGeometry relative="1" as="geometry" />
        </mxCell>
        <mxCell id="a9asF_GVmqtu390SuNol-96" value="master_desvios_mes_por_sap" style="rounded=0;whiteSpace=wrap;html=1;fillColor=#f8cecc;strokeColor=#b85450;fontSize=10;fontFamily=Times New Roman;" vertex="1" parent="a9asF_GVmqtu390SuNol-1">
          <mxGeometry x="2275" y="1370" width="140" height="60" as="geometry" />
        </mxCell>
        <mxCell id="a9asF_GVmqtu390SuNol-97" style="edgeStyle=orthogonalEdgeStyle;rounded=0;orthogonalLoop=1;jettySize=auto;html=1;exitX=0.5;exitY=1;exitDx=0;exitDy=0;entryX=0.5;entryY=0;entryDx=0;entryDy=0;" edge="1" parent="a9asF_GVmqtu390SuNol-1" source="a9asF_GVmqtu390SuNol-98" target="a9asF_GVmqtu390SuNol-100">
          <mxGeometry relative="1" as="geometry" />
        </mxCell>
        <mxCell id="a9asF_GVmqtu390SuNol-98" value="model_max_execution_model_fc_d_por_forecast_data_informe_desvios_sap" style="rounded=0;whiteSpace=wrap;html=1;fillColor=#f8cecc;strokeColor=#b85450;fontSize=10;fontFamily=Times New Roman;" vertex="1" parent="a9asF_GVmqtu390SuNol-1">
          <mxGeometry x="1995" y="1500" width="330" height="60" as="geometry" />
        </mxCell>
        <mxCell id="a9asF_GVmqtu390SuNol-99" style="edgeStyle=orthogonalEdgeStyle;rounded=0;orthogonalLoop=1;jettySize=auto;html=1;exitX=0.5;exitY=1;exitDx=0;exitDy=0;entryX=0.5;entryY=0;entryDx=0;entryDy=0;" edge="1" parent="a9asF_GVmqtu390SuNol-1" source="a9asF_GVmqtu390SuNol-100" target="a9asF_GVmqtu390SuNol-104">
          <mxGeometry relative="1" as="geometry" />
        </mxCell>
        <mxCell id="a9asF_GVmqtu390SuNol-100" value="desvio_diario_por_sap" style="rounded=0;whiteSpace=wrap;html=1;fillColor=#f8cecc;strokeColor=#b85450;fontSize=10;fontFamily=Times New Roman;" vertex="1" parent="a9asF_GVmqtu390SuNol-1">
          <mxGeometry x="2090" y="1600" width="140" height="60" as="geometry" />
        </mxCell>
        <mxCell id="a9asF_GVmqtu390SuNol-101" style="edgeStyle=orthogonalEdgeStyle;rounded=0;orthogonalLoop=1;jettySize=auto;html=1;exitX=0;exitY=0.5;exitDx=0;exitDy=0;entryX=1;entryY=0.5;entryDx=0;entryDy=0;" edge="1" parent="a9asF_GVmqtu390SuNol-1" source="a9asF_GVmqtu390SuNol-102" target="a9asF_GVmqtu390SuNol-100">
          <mxGeometry relative="1" as="geometry" />
        </mxCell>
        <mxCell id="a9asF_GVmqtu390SuNol-102" value="ods_fenix_zfic_t_cuadre" style="rounded=0;whiteSpace=wrap;html=1;fillColor=#dae8fc;strokeColor=#6c8ebf;fontSize=10;" vertex="1" parent="a9asF_GVmqtu390SuNol-1">
          <mxGeometry x="2325" y="1600" width="140" height="60" as="geometry" />
        </mxCell>
        <mxCell id="a9asF_GVmqtu390SuNol-103" style="edgeStyle=orthogonalEdgeStyle;rounded=0;orthogonalLoop=1;jettySize=auto;html=1;exitX=1;exitY=0.5;exitDx=0;exitDy=0;entryX=0;entryY=0.5;entryDx=0;entryDy=0;" edge="1" parent="a9asF_GVmqtu390SuNol-1" source="a9asF_GVmqtu390SuNol-104" target="a9asF_GVmqtu390SuNol-105">
          <mxGeometry relative="1" as="geometry" />
        </mxCell>
        <mxCell id="a9asF_GVmqtu390SuNol-104" value="desvio_diario_por" style="rounded=0;whiteSpace=wrap;html=1;fillColor=#f8cecc;strokeColor=#b85450;fontSize=10;" vertex="1" parent="a9asF_GVmqtu390SuNol-1">
          <mxGeometry x="1925" y="1710" width="150" height="60" as="geometry" />
        </mxCell>
        <mxCell id="a9asF_GVmqtu390SuNol-105" value="desvio_diario_por_hist" style="rounded=0;whiteSpace=wrap;html=1;fillColor=#f8cecc;strokeColor=#b85450;fontSize=10;" vertex="1" parent="a9asF_GVmqtu390SuNol-1">
          <mxGeometry x="2155" y="1710" width="150" height="60" as="geometry" />
        </mxCell>
        <mxCell id="7R5wY6YQ_rYKqsolJ8ue-0" value="&lt;blockquote style=&quot;text-indent: -18pt;&quot;&gt;&lt;font style=&quot;font-size: 10px;&quot;&gt;t_ed_h_facts&lt;/font&gt;&lt;/blockquote&gt;" style="rounded=0;whiteSpace=wrap;html=1;fontFamily=Times New Roman;align=center;fillColor=#fff2cc;strokeColor=#d6b656;" vertex="1" parent="a9asF_GVmqtu390SuNol-1">
          <mxGeometry x="1300" y="100" width="100" height="60" as="geometry" />
        </mxCell>
        <mxCell id="7R5wY6YQ_rYKqsolJ8ue-1" value="tmp_facturas_por_80_desvios&amp;nbsp;" style="rounded=0;whiteSpace=wrap;html=1;fillColor=#f8cecc;strokeColor=#b85450;fontFamily=Times New Roman;fontSize=10;" vertex="1" parent="a9asF_GVmqtu390SuNol-1">
          <mxGeometry x="1260" y="210" width="180" height="60" as="geometry" />
        </mxCell>
        <mxCell id="7R5wY6YQ_rYKqsolJ8ue-2" value="" style="endArrow=classic;html=1;rounded=0;entryX=0.5;entryY=0;entryDx=0;entryDy=0;exitX=0.5;exitY=1;exitDx=0;exitDy=0;" edge="1" parent="a9asF_GVmqtu390SuNol-1" source="7R5wY6YQ_rYKqsolJ8ue-0" target="7R5wY6YQ_rYKqsolJ8ue-1">
          <mxGeometry width="50" height="50" relative="1" as="geometry">
            <mxPoint x="1660" y="90" as="sourcePoint" />
            <mxPoint x="1710" y="40" as="targetPoint" />
          </mxGeometry>
        </mxCell>
        <mxCell id="7R5wY6YQ_rYKqsolJ8ue-3" value="" style="edgeStyle=orthogonalEdgeStyle;rounded=0;orthogonalLoop=1;jettySize=auto;html=1;" edge="1" parent="a9asF_GVmqtu390SuNol-1" source="7R5wY6YQ_rYKqsolJ8ue-4" target="7R5wY6YQ_rYKqsolJ8ue-8">
          <mxGeometry relative="1" as="geometry" />
        </mxCell>
        <mxCell id="7R5wY6YQ_rYKqsolJ8ue-4" value="tmp_tlcodfa_facturas_por_80_desvios" style="rounded=0;whiteSpace=wrap;html=1;fillColor=#f8cecc;strokeColor=#b85450;verticalAlign=middle;fontSize=9;" vertex="1" parent="a9asF_GVmqtu390SuNol-1">
          <mxGeometry x="1260" y="330" width="180" height="60" as="geometry" />
        </mxCell>
        <mxCell id="7R5wY6YQ_rYKqsolJ8ue-5" style="edgeStyle=orthogonalEdgeStyle;rounded=0;orthogonalLoop=1;jettySize=auto;html=1;entryX=0.5;entryY=0;entryDx=0;entryDy=0;" edge="1" parent="a9asF_GVmqtu390SuNol-1" source="7R5wY6YQ_rYKqsolJ8ue-6" target="7R5wY6YQ_rYKqsolJ8ue-4">
          <mxGeometry relative="1" as="geometry" />
        </mxCell>
        <mxCell id="7R5wY6YQ_rYKqsolJ8ue-6" value="ods_ml_t1codfa" style="rounded=0;whiteSpace=wrap;html=1;fillColor=#dae8fc;strokeColor=#6c8ebf;fontSize=10;" vertex="1" parent="a9asF_GVmqtu390SuNol-1">
          <mxGeometry x="1460" y="270" width="140" height="60" as="geometry" />
        </mxCell>
        <mxCell id="7R5wY6YQ_rYKqsolJ8ue-7" value="" style="endArrow=classic;html=1;rounded=0;entryX=0.5;entryY=0;entryDx=0;entryDy=0;exitX=0.5;exitY=1;exitDx=0;exitDy=0;" edge="1" parent="a9asF_GVmqtu390SuNol-1" source="7R5wY6YQ_rYKqsolJ8ue-1" target="7R5wY6YQ_rYKqsolJ8ue-4">
          <mxGeometry width="50" height="50" relative="1" as="geometry">
            <mxPoint x="1660" y="280" as="sourcePoint" />
            <mxPoint x="1710" y="230" as="targetPoint" />
          </mxGeometry>
        </mxCell>
        <mxCell id="7R5wY6YQ_rYKqsolJ8ue-50" style="edgeStyle=orthogonalEdgeStyle;rounded=0;orthogonalLoop=1;jettySize=auto;html=1;exitX=0.5;exitY=1;exitDx=0;exitDy=0;entryX=0.5;entryY=0;entryDx=0;entryDy=0;" edge="1" parent="a9asF_GVmqtu390SuNol-1" source="7R5wY6YQ_rYKqsolJ8ue-8" target="7R5wY6YQ_rYKqsolJ8ue-49">
          <mxGeometry relative="1" as="geometry">
            <Array as="points">
              <mxPoint x="1350" y="560" />
              <mxPoint x="1780" y="560" />
            </Array>
          </mxGeometry>
        </mxCell>
        <mxCell id="7R5wY6YQ_rYKqsolJ8ue-8" value="tmp_tlcodfa_linea_negocio_fixed_por_80_desvios" style="rounded=0;whiteSpace=wrap;html=1;fontSize=10;fillColor=#f8cecc;strokeColor=#b85450;" vertex="1" parent="a9asF_GVmqtu390SuNol-1">
          <mxGeometry x="1230" y="460" width="240" height="60" as="geometry" />
        </mxCell>
        <mxCell id="7R5wY6YQ_rYKqsolJ8ue-22" style="edgeStyle=orthogonalEdgeStyle;rounded=0;orthogonalLoop=1;jettySize=auto;html=1;exitX=0;exitY=0.5;exitDx=0;exitDy=0;entryX=1;entryY=0.5;entryDx=0;entryDy=0;" edge="1" parent="a9asF_GVmqtu390SuNol-1" source="7R5wY6YQ_rYKqsolJ8ue-23" target="7R5wY6YQ_rYKqsolJ8ue-26">
          <mxGeometry relative="1" as="geometry" />
        </mxCell>
        <mxCell id="7R5wY6YQ_rYKqsolJ8ue-23" value="ods_ml_t1obcob" style="rounded=0;whiteSpace=wrap;html=1;fillColor=#dae8fc;strokeColor=#6c8ebf;fontSize=10;" vertex="1" parent="a9asF_GVmqtu390SuNol-1">
          <mxGeometry x="1980" y="190" width="140" height="60" as="geometry" />
        </mxCell>
        <mxCell id="7R5wY6YQ_rYKqsolJ8ue-24" style="edgeStyle=orthogonalEdgeStyle;rounded=0;orthogonalLoop=1;jettySize=auto;html=1;exitX=0.5;exitY=1;exitDx=0;exitDy=0;entryX=0.5;entryY=0;entryDx=0;entryDy=0;" edge="1" parent="a9asF_GVmqtu390SuNol-1" source="7R5wY6YQ_rYKqsolJ8ue-26" target="7R5wY6YQ_rYKqsolJ8ue-38">
          <mxGeometry relative="1" as="geometry" />
        </mxCell>
        <mxCell id="7R5wY6YQ_rYKqsolJ8ue-25" style="edgeStyle=orthogonalEdgeStyle;rounded=0;orthogonalLoop=1;jettySize=auto;html=1;exitX=0.5;exitY=1;exitDx=0;exitDy=0;entryX=0;entryY=0.5;entryDx=0;entryDy=0;" edge="1" parent="a9asF_GVmqtu390SuNol-1" source="7R5wY6YQ_rYKqsolJ8ue-26" target="7R5wY6YQ_rYKqsolJ8ue-44">
          <mxGeometry relative="1" as="geometry">
            <Array as="points">
              <mxPoint x="1780" y="240" />
              <mxPoint x="1630" y="240" />
              <mxPoint x="1630" y="510" />
            </Array>
          </mxGeometry>
        </mxCell>
        <mxCell id="7R5wY6YQ_rYKqsolJ8ue-26" value="tmp_obligaciones_por_80_desvios&amp;nbsp;" style="rounded=0;whiteSpace=wrap;html=1;fontSize=10;fillColor=#f8cecc;strokeColor=#b85450;" vertex="1" parent="a9asF_GVmqtu390SuNol-1">
          <mxGeometry x="1690" y="160" width="180" height="60" as="geometry" />
        </mxCell>
        <mxCell id="7R5wY6YQ_rYKqsolJ8ue-27" style="edgeStyle=orthogonalEdgeStyle;rounded=0;orthogonalLoop=1;jettySize=auto;html=1;exitX=1;exitY=0.5;exitDx=0;exitDy=0;entryX=0;entryY=0.5;entryDx=0;entryDy=0;" edge="1" parent="a9asF_GVmqtu390SuNol-1" source="7R5wY6YQ_rYKqsolJ8ue-28" target="7R5wY6YQ_rYKqsolJ8ue-26">
          <mxGeometry relative="1" as="geometry" />
        </mxCell>
        <mxCell id="7R5wY6YQ_rYKqsolJ8ue-28" value="ods_ml_T1CLCES" style="rounded=0;whiteSpace=wrap;html=1;fillColor=#dae8fc;strokeColor=#6c8ebf;fontSize=10;" vertex="1" parent="a9asF_GVmqtu390SuNol-1">
          <mxGeometry x="1470" y="130" width="140" height="60" as="geometry" />
        </mxCell>
        <mxCell id="7R5wY6YQ_rYKqsolJ8ue-29" style="edgeStyle=orthogonalEdgeStyle;rounded=0;orthogonalLoop=1;jettySize=auto;html=1;exitX=0.5;exitY=1;exitDx=0;exitDy=0;entryX=0.5;entryY=0;entryDx=0;entryDy=0;" edge="1" parent="a9asF_GVmqtu390SuNol-1" source="7R5wY6YQ_rYKqsolJ8ue-30" target="7R5wY6YQ_rYKqsolJ8ue-26">
          <mxGeometry relative="1" as="geometry" />
        </mxCell>
        <mxCell id="7R5wY6YQ_rYKqsolJ8ue-30" value="&lt;span style=&quot;font-size: 10px; line-height: 107%; font-family: Calibri, sans-serif;&quot;&gt;ods_ml_T1OBABO&lt;/span&gt;" style="rounded=0;whiteSpace=wrap;html=1;fillColor=#dae8fc;strokeColor=#6c8ebf;fontSize=10;" vertex="1" parent="a9asF_GVmqtu390SuNol-1">
          <mxGeometry x="1640" y="70" width="140" height="60" as="geometry" />
        </mxCell>
        <mxCell id="7R5wY6YQ_rYKqsolJ8ue-31" style="edgeStyle=orthogonalEdgeStyle;rounded=0;orthogonalLoop=1;jettySize=auto;html=1;exitX=0.5;exitY=1;exitDx=0;exitDy=0;entryX=0.5;entryY=0;entryDx=0;entryDy=0;" edge="1" parent="a9asF_GVmqtu390SuNol-1" source="7R5wY6YQ_rYKqsolJ8ue-32" target="7R5wY6YQ_rYKqsolJ8ue-26">
          <mxGeometry relative="1" as="geometry" />
        </mxCell>
        <mxCell id="7R5wY6YQ_rYKqsolJ8ue-32" value="&lt;p style=&quot;text-indent: -18pt; font-size: 10px;&quot; class=&quot;MsoListParagraph&quot;&gt;ods_ml_T1FACTU&lt;/p&gt;" style="rounded=0;whiteSpace=wrap;html=1;fillColor=#dae8fc;strokeColor=#6c8ebf;fontSize=10;" vertex="1" parent="a9asF_GVmqtu390SuNol-1">
          <mxGeometry x="1780" y="70" width="140" height="60" as="geometry" />
        </mxCell>
        <mxCell id="7R5wY6YQ_rYKqsolJ8ue-33" style="edgeStyle=orthogonalEdgeStyle;rounded=0;orthogonalLoop=1;jettySize=auto;html=1;exitX=0;exitY=0.5;exitDx=0;exitDy=0;entryX=1;entryY=0.5;entryDx=0;entryDy=0;" edge="1" parent="a9asF_GVmqtu390SuNol-1" source="7R5wY6YQ_rYKqsolJ8ue-34" target="7R5wY6YQ_rYKqsolJ8ue-26">
          <mxGeometry relative="1" as="geometry" />
        </mxCell>
        <mxCell id="7R5wY6YQ_rYKqsolJ8ue-34" value="ods_ml_T1FACDA" style="rounded=0;whiteSpace=wrap;html=1;fillColor=#dae8fc;strokeColor=#6c8ebf;fontSize=10;" vertex="1" parent="a9asF_GVmqtu390SuNol-1">
          <mxGeometry x="1980" y="130" width="140" height="60" as="geometry" />
        </mxCell>
        <mxCell id="7R5wY6YQ_rYKqsolJ8ue-35" style="edgeStyle=orthogonalEdgeStyle;rounded=0;orthogonalLoop=1;jettySize=auto;html=1;exitX=1;exitY=0.5;exitDx=0;exitDy=0;entryX=0;entryY=0.5;entryDx=0;entryDy=0;" edge="1" parent="a9asF_GVmqtu390SuNol-1" source="7R5wY6YQ_rYKqsolJ8ue-36" target="7R5wY6YQ_rYKqsolJ8ue-26">
          <mxGeometry relative="1" as="geometry" />
        </mxCell>
        <mxCell id="7R5wY6YQ_rYKqsolJ8ue-36" value="ods_ml_t1oblig" style="rounded=0;whiteSpace=wrap;html=1;fillColor=#dae8fc;strokeColor=#6c8ebf;fontSize=10;" vertex="1" parent="a9asF_GVmqtu390SuNol-1">
          <mxGeometry x="1470" y="190" width="140" height="60" as="geometry" />
        </mxCell>
        <mxCell id="7R5wY6YQ_rYKqsolJ8ue-37" style="edgeStyle=orthogonalEdgeStyle;rounded=0;orthogonalLoop=1;jettySize=auto;html=1;exitX=0.5;exitY=1;exitDx=0;exitDy=0;" edge="1" parent="a9asF_GVmqtu390SuNol-1" source="7R5wY6YQ_rYKqsolJ8ue-38" target="7R5wY6YQ_rYKqsolJ8ue-40">
          <mxGeometry relative="1" as="geometry" />
        </mxCell>
        <mxCell id="7R5wY6YQ_rYKqsolJ8ue-38" value="tmp_obligaciones_contratos_T3RESOP_por_80_desvios&amp;nbsp;" style="rounded=0;whiteSpace=wrap;html=1;fillColor=#f8cecc;strokeColor=#b85450;fontSize=10;" vertex="1" parent="a9asF_GVmqtu390SuNol-1">
          <mxGeometry x="1637.5" y="270" width="285" height="60" as="geometry" />
        </mxCell>
        <mxCell id="7R5wY6YQ_rYKqsolJ8ue-39" value="" style="edgeStyle=orthogonalEdgeStyle;rounded=0;orthogonalLoop=1;jettySize=auto;html=1;" edge="1" parent="a9asF_GVmqtu390SuNol-1" source="7R5wY6YQ_rYKqsolJ8ue-40" target="7R5wY6YQ_rYKqsolJ8ue-44">
          <mxGeometry relative="1" as="geometry" />
        </mxCell>
        <mxCell id="7R5wY6YQ_rYKqsolJ8ue-40" value="tmp_Movimientos_T3RESOP_por_80_desvios" style="rounded=0;whiteSpace=wrap;html=1;fillColor=#f8cecc;strokeColor=#b85450;fontSize=10;" vertex="1" parent="a9asF_GVmqtu390SuNol-1">
          <mxGeometry x="1668.75" y="380" width="222.5" height="60" as="geometry" />
        </mxCell>
        <mxCell id="7R5wY6YQ_rYKqsolJ8ue-41" style="edgeStyle=orthogonalEdgeStyle;rounded=0;orthogonalLoop=1;jettySize=auto;html=1;entryX=0.5;entryY=0;entryDx=0;entryDy=0;" edge="1" parent="a9asF_GVmqtu390SuNol-1" source="7R5wY6YQ_rYKqsolJ8ue-42" target="7R5wY6YQ_rYKqsolJ8ue-40">
          <mxGeometry relative="1" as="geometry" />
        </mxCell>
        <mxCell id="7R5wY6YQ_rYKqsolJ8ue-42" value="ods_ml_T3RESOP" style="rounded=0;whiteSpace=wrap;html=1;fillColor=#dae8fc;strokeColor=#6c8ebf;fontSize=10;" vertex="1" parent="a9asF_GVmqtu390SuNol-1">
          <mxGeometry x="1980" y="330" width="140" height="60" as="geometry" />
        </mxCell>
        <mxCell id="7R5wY6YQ_rYKqsolJ8ue-43" style="edgeStyle=orthogonalEdgeStyle;rounded=0;orthogonalLoop=1;jettySize=auto;html=1;exitX=0.5;exitY=1;exitDx=0;exitDy=0;entryX=0.5;entryY=0;entryDx=0;entryDy=0;" edge="1" parent="a9asF_GVmqtu390SuNol-1" source="7R5wY6YQ_rYKqsolJ8ue-44" target="7R5wY6YQ_rYKqsolJ8ue-49">
          <mxGeometry relative="1" as="geometry" />
        </mxCell>
        <mxCell id="7R5wY6YQ_rYKqsolJ8ue-44" value="tmp_Movimientos_Obligacion_por_80_desvios" style="rounded=0;whiteSpace=wrap;html=1;fontSize=10;fillColor=#f8cecc;strokeColor=#b85450;" vertex="1" parent="a9asF_GVmqtu390SuNol-1">
          <mxGeometry x="1656.25" y="480" width="247.5" height="60" as="geometry" />
        </mxCell>
        <mxCell id="7R5wY6YQ_rYKqsolJ8ue-45" value="" style="edgeStyle=orthogonalEdgeStyle;rounded=0;orthogonalLoop=1;jettySize=auto;html=1;" edge="1" parent="a9asF_GVmqtu390SuNol-1" source="7R5wY6YQ_rYKqsolJ8ue-46" target="7R5wY6YQ_rYKqsolJ8ue-44">
          <mxGeometry relative="1" as="geometry" />
        </mxCell>
        <mxCell id="7R5wY6YQ_rYKqsolJ8ue-46" value="ods_ml_t1movob" style="rounded=0;whiteSpace=wrap;html=1;fillColor=#dae8fc;strokeColor=#6c8ebf;fontSize=10;" vertex="1" parent="a9asF_GVmqtu390SuNol-1">
          <mxGeometry x="1980" y="430" width="140" height="60" as="geometry" />
        </mxCell>
        <mxCell id="7R5wY6YQ_rYKqsolJ8ue-47" value="" style="edgeStyle=orthogonalEdgeStyle;rounded=0;orthogonalLoop=1;jettySize=auto;html=1;" edge="1" parent="a9asF_GVmqtu390SuNol-1" source="7R5wY6YQ_rYKqsolJ8ue-48" target="7R5wY6YQ_rYKqsolJ8ue-44">
          <mxGeometry relative="1" as="geometry" />
        </mxCell>
        <mxCell id="7R5wY6YQ_rYKqsolJ8ue-48" value="ods_ml_T1TRANF" style="rounded=0;whiteSpace=wrap;html=1;fillColor=#dae8fc;strokeColor=#6c8ebf;fontSize=10;" vertex="1" parent="a9asF_GVmqtu390SuNol-1">
          <mxGeometry x="1980" y="510" width="140" height="60" as="geometry" />
        </mxCell>
        <mxCell id="7R5wY6YQ_rYKqsolJ8ue-52" style="edgeStyle=orthogonalEdgeStyle;rounded=0;orthogonalLoop=1;jettySize=auto;html=1;exitX=0.5;exitY=1;exitDx=0;exitDy=0;entryX=0.5;entryY=0;entryDx=0;entryDy=0;" edge="1" parent="a9asF_GVmqtu390SuNol-1" source="7R5wY6YQ_rYKqsolJ8ue-49" target="7R5wY6YQ_rYKqsolJ8ue-51">
          <mxGeometry relative="1" as="geometry" />
        </mxCell>
        <mxCell id="7R5wY6YQ_rYKqsolJ8ue-49" value="tmp_Movimientos_Obligacion_Acuerdos_Extra_Fixed_LN_por_80_desvios" style="rounded=0;whiteSpace=wrap;html=1;fillColor=#f8cecc;strokeColor=#b85450;fontSize=10;" vertex="1" parent="a9asF_GVmqtu390SuNol-1">
          <mxGeometry x="1597.5" y="590" width="365" height="60" as="geometry" />
        </mxCell>
        <mxCell id="Xmz2wC6jUmYsKuCKz_Pg-8" style="edgeStyle=orthogonalEdgeStyle;rounded=0;orthogonalLoop=1;jettySize=auto;html=1;exitX=0.5;exitY=1;exitDx=0;exitDy=0;entryX=0.5;entryY=0;entryDx=0;entryDy=0;" edge="1" parent="a9asF_GVmqtu390SuNol-1" source="7R5wY6YQ_rYKqsolJ8ue-51" target="Xmz2wC6jUmYsKuCKz_Pg-7">
          <mxGeometry relative="1" as="geometry" />
        </mxCell>
        <mxCell id="7R5wY6YQ_rYKqsolJ8ue-51" value="tmp_Cobros_Trazable_por_80_desvios" style="rounded=0;whiteSpace=wrap;html=1;fontSize=10;fillColor=#f8cecc;strokeColor=#b85450;" vertex="1" parent="a9asF_GVmqtu390SuNol-1">
          <mxGeometry x="1668.75" y="730" width="223.75" height="60" as="geometry" />
        </mxCell>
        <mxCell id="Xmz2wC6jUmYsKuCKz_Pg-4" style="edgeStyle=orthogonalEdgeStyle;rounded=0;orthogonalLoop=1;jettySize=auto;html=1;exitX=0;exitY=0.5;exitDx=0;exitDy=0;entryX=0.5;entryY=0;entryDx=0;entryDy=0;" edge="1" parent="a9asF_GVmqtu390SuNol-1" source="Xmz2wC6jUmYsKuCKz_Pg-0" target="7R5wY6YQ_rYKqsolJ8ue-51">
          <mxGeometry relative="1" as="geometry" />
        </mxCell>
        <mxCell id="Xmz2wC6jUmYsKuCKz_Pg-0" value="P01_clientes_fact_adelantada" style="rounded=0;whiteSpace=wrap;html=1;fillColor=#f8cecc;strokeColor=#b85450;fontSize=10;" vertex="1" parent="a9asF_GVmqtu390SuNol-1">
          <mxGeometry x="1962.5" y="650" width="140" height="60" as="geometry" />
        </mxCell>
        <mxCell id="Xmz2wC6jUmYsKuCKz_Pg-5" style="edgeStyle=orthogonalEdgeStyle;rounded=0;orthogonalLoop=1;jettySize=auto;html=1;exitX=1;exitY=0.5;exitDx=0;exitDy=0;entryX=0.5;entryY=0;entryDx=0;entryDy=0;" edge="1" parent="a9asF_GVmqtu390SuNol-1" source="Xmz2wC6jUmYsKuCKz_Pg-1" target="7R5wY6YQ_rYKqsolJ8ue-51">
          <mxGeometry relative="1" as="geometry" />
        </mxCell>
        <mxCell id="Xmz2wC6jUmYsKuCKz_Pg-1" value="P01_clientes_con_segmento" style="rounded=0;whiteSpace=wrap;html=1;fillColor=#f8cecc;strokeColor=#b85450;fontSize=10;" vertex="1" parent="a9asF_GVmqtu390SuNol-1">
          <mxGeometry x="1457.5" y="650" width="140" height="60" as="geometry" />
        </mxCell>
        <mxCell id="Xmz2wC6jUmYsKuCKz_Pg-9" style="edgeStyle=orthogonalEdgeStyle;rounded=0;orthogonalLoop=1;jettySize=auto;html=1;exitX=0;exitY=0.5;exitDx=0;exitDy=0;entryX=0.5;entryY=0;entryDx=0;entryDy=0;" edge="1" parent="a9asF_GVmqtu390SuNol-1" source="Xmz2wC6jUmYsKuCKz_Pg-6" target="Xmz2wC6jUmYsKuCKz_Pg-7">
          <mxGeometry relative="1" as="geometry" />
        </mxCell>
        <mxCell id="Xmz2wC6jUmYsKuCKz_Pg-6" value="P02_car_cobros_no_trazable_esp_por_desvios" style="rounded=0;whiteSpace=wrap;html=1;fontSize=10;fillColor=#f8cecc;strokeColor=#b85450;" vertex="1" parent="a9asF_GVmqtu390SuNol-1">
          <mxGeometry x="1922.5" y="810" width="223.75" height="60" as="geometry" />
        </mxCell>
        <mxCell id="Xmz2wC6jUmYsKuCKz_Pg-16" style="edgeStyle=orthogonalEdgeStyle;rounded=0;orthogonalLoop=1;jettySize=auto;html=1;exitX=0.5;exitY=1;exitDx=0;exitDy=0;entryX=1;entryY=0.5;entryDx=0;entryDy=0;" edge="1" parent="a9asF_GVmqtu390SuNol-1" source="Xmz2wC6jUmYsKuCKz_Pg-7" target="Xmz2wC6jUmYsKuCKz_Pg-14">
          <mxGeometry relative="1" as="geometry" />
        </mxCell>
        <mxCell id="Xmz2wC6jUmYsKuCKz_Pg-7" value="tmp_Cobros_Trazable_No_Trazables_car_por_80_desvios" style="rounded=0;whiteSpace=wrap;html=1;fontSize=10;fillColor=#f8cecc;strokeColor=#b85450;" vertex="1" parent="a9asF_GVmqtu390SuNol-1">
          <mxGeometry x="1640" y="910" width="282.5" height="60" as="geometry" />
        </mxCell>
        <mxCell id="Xmz2wC6jUmYsKuCKz_Pg-18" style="edgeStyle=orthogonalEdgeStyle;rounded=0;orthogonalLoop=1;jettySize=auto;html=1;exitX=0.5;exitY=1;exitDx=0;exitDy=0;entryX=0.5;entryY=0;entryDx=0;entryDy=0;" edge="1" parent="a9asF_GVmqtu390SuNol-1" source="Xmz2wC6jUmYsKuCKz_Pg-14" target="a9asF_GVmqtu390SuNol-68">
          <mxGeometry relative="1" as="geometry" />
        </mxCell>
        <mxCell id="Xmz2wC6jUmYsKuCKz_Pg-14" value="P05_Cobros_Trazable_No_Trazables_car_por_desvios" style="rounded=0;whiteSpace=wrap;html=1;fontSize=10;fillColor=#f8cecc;strokeColor=#b85450;" vertex="1" parent="a9asF_GVmqtu390SuNol-1">
          <mxGeometry x="1317.5" y="1000" width="282.5" height="60" as="geometry" />
        </mxCell>
      </root>
    </mxGraphModel>
  </diagram>
  <diagram id="mm91q4yV4d0hT0_4R8LF" name="Francia">
    <mxGraphModel dx="1434" dy="731" grid="1" gridSize="10" guides="1" tooltips="1" connect="1" arrows="1" fold="1" page="1" pageScale="1" pageWidth="850" pageHeight="1100" math="0" shadow="0">
      <root>
        <mxCell id="0" />
        <mxCell id="1" parent="0" />
        <mxCell id="sErci1Iy1_mk4MTC0A7w-18" style="edgeStyle=orthogonalEdgeStyle;rounded=0;orthogonalLoop=1;jettySize=auto;html=1;exitX=0.5;exitY=1;exitDx=0;exitDy=0;entryX=0.5;entryY=0;entryDx=0;entryDy=0;" edge="1" parent="1" source="sErci1Iy1_mk4MTC0A7w-4" target="sErci1Iy1_mk4MTC0A7w-16">
          <mxGeometry relative="1" as="geometry" />
        </mxCell>
        <mxCell id="sErci1Iy1_mk4MTC0A7w-4" value="ods_ml_datosfrancia&amp;nbsp;" style="rounded=0;whiteSpace=wrap;html=1;fontSize=10;fillColor=#f8cecc;strokeColor=#b85450;" vertex="1" parent="1">
          <mxGeometry x="10" y="80" width="110" height="50" as="geometry" />
        </mxCell>
        <mxCell id="sErci1Iy1_mk4MTC0A7w-17" style="edgeStyle=orthogonalEdgeStyle;rounded=0;orthogonalLoop=1;jettySize=auto;html=1;exitX=0.5;exitY=1;exitDx=0;exitDy=0;entryX=0.5;entryY=0;entryDx=0;entryDy=0;" edge="1" parent="1" source="sErci1Iy1_mk4MTC0A7w-15" target="sErci1Iy1_mk4MTC0A7w-16">
          <mxGeometry relative="1" as="geometry" />
        </mxCell>
        <mxCell id="sErci1Iy1_mk4MTC0A7w-15" value="desvio_diario_por_ml" style="rounded=0;whiteSpace=wrap;html=1;fontSize=10;fillColor=#f8cecc;strokeColor=#b85450;" vertex="1" parent="1">
          <mxGeometry x="145" y="80" width="110" height="50" as="geometry" />
        </mxCell>
        <mxCell id="sErci1Iy1_mk4MTC0A7w-20" style="edgeStyle=orthogonalEdgeStyle;rounded=0;orthogonalLoop=1;jettySize=auto;html=1;exitX=0.5;exitY=1;exitDx=0;exitDy=0;entryX=0.5;entryY=0;entryDx=0;entryDy=0;" edge="1" parent="1" source="sErci1Iy1_mk4MTC0A7w-16" target="sErci1Iy1_mk4MTC0A7w-19">
          <mxGeometry relative="1" as="geometry" />
        </mxCell>
        <mxCell id="sErci1Iy1_mk4MTC0A7w-28" style="edgeStyle=orthogonalEdgeStyle;rounded=0;orthogonalLoop=1;jettySize=auto;html=1;exitX=1;exitY=0.5;exitDx=0;exitDy=0;entryX=0;entryY=0.5;entryDx=0;entryDy=0;" edge="1" parent="1" source="sErci1Iy1_mk4MTC0A7w-16" target="sErci1Iy1_mk4MTC0A7w-25">
          <mxGeometry relative="1" as="geometry" />
        </mxCell>
        <mxCell id="sErci1Iy1_mk4MTC0A7w-16" value="p01_ccs_francia_dia_desvios" style="rounded=0;whiteSpace=wrap;html=1;fontSize=10;fillColor=#f8cecc;strokeColor=#b85450;" vertex="1" parent="1">
          <mxGeometry x="60" y="200" width="150" height="50" as="geometry" />
        </mxCell>
        <mxCell id="sErci1Iy1_mk4MTC0A7w-23" style="edgeStyle=orthogonalEdgeStyle;rounded=0;orthogonalLoop=1;jettySize=auto;html=1;exitX=0.5;exitY=1;exitDx=0;exitDy=0;entryX=0.5;entryY=0;entryDx=0;entryDy=0;" edge="1" parent="1" source="sErci1Iy1_mk4MTC0A7w-19" target="sErci1Iy1_mk4MTC0A7w-21">
          <mxGeometry relative="1" as="geometry" />
        </mxCell>
        <mxCell id="sErci1Iy1_mk4MTC0A7w-19" value="tmp_car_fc_francia_mensual_desvios" style="rounded=0;whiteSpace=wrap;html=1;fontSize=10;fillColor=#f8cecc;strokeColor=#b85450;" vertex="1" parent="1">
          <mxGeometry x="45" y="290" width="180" height="50" as="geometry" />
        </mxCell>
        <mxCell id="sErci1Iy1_mk4MTC0A7w-21" value="tmp_car_fc_francia_mensual_v2_desvios" style="rounded=0;whiteSpace=wrap;html=1;fontSize=10;fillColor=#f8cecc;strokeColor=#b85450;" vertex="1" parent="1">
          <mxGeometry x="37.5" y="410" width="195" height="50" as="geometry" />
        </mxCell>
        <mxCell id="sErci1Iy1_mk4MTC0A7w-24" style="edgeStyle=orthogonalEdgeStyle;rounded=0;orthogonalLoop=1;jettySize=auto;html=1;exitX=0;exitY=0.5;exitDx=0;exitDy=0;entryX=0.5;entryY=0;entryDx=0;entryDy=0;" edge="1" parent="1" source="sErci1Iy1_mk4MTC0A7w-22" target="sErci1Iy1_mk4MTC0A7w-21">
          <mxGeometry relative="1" as="geometry" />
        </mxCell>
        <mxCell id="sErci1Iy1_mk4MTC0A7w-31" style="edgeStyle=orthogonalEdgeStyle;rounded=0;orthogonalLoop=1;jettySize=auto;html=1;exitX=1;exitY=0.5;exitDx=0;exitDy=0;entryX=0;entryY=0.5;entryDx=0;entryDy=0;" edge="1" parent="1" source="sErci1Iy1_mk4MTC0A7w-22" target="sErci1Iy1_mk4MTC0A7w-30">
          <mxGeometry relative="1" as="geometry" />
        </mxCell>
        <mxCell id="sErci1Iy1_mk4MTC0A7w-22" value="master_var_typeofweek" style="rounded=0;whiteSpace=wrap;html=1;fontSize=10;fillColor=#f8cecc;strokeColor=#b85450;" vertex="1" parent="1">
          <mxGeometry x="240" y="350" width="120" height="50" as="geometry" />
        </mxCell>
        <mxCell id="sErci1Iy1_mk4MTC0A7w-32" style="edgeStyle=orthogonalEdgeStyle;rounded=0;orthogonalLoop=1;jettySize=auto;html=1;exitX=0.5;exitY=1;exitDx=0;exitDy=0;entryX=0.5;entryY=0;entryDx=0;entryDy=0;" edge="1" parent="1" source="sErci1Iy1_mk4MTC0A7w-25" target="sErci1Iy1_mk4MTC0A7w-30">
          <mxGeometry relative="1" as="geometry" />
        </mxCell>
        <mxCell id="sErci1Iy1_mk4MTC0A7w-25" value="tmp_car_fc_francia_diario_desvios&amp;nbsp;" style="rounded=0;whiteSpace=wrap;html=1;fontSize=10;fillColor=#f8cecc;strokeColor=#b85450;" vertex="1" parent="1">
          <mxGeometry x="360" y="200" width="170" height="50" as="geometry" />
        </mxCell>
        <mxCell id="sErci1Iy1_mk4MTC0A7w-29" style="edgeStyle=orthogonalEdgeStyle;rounded=0;orthogonalLoop=1;jettySize=auto;html=1;exitX=0.5;exitY=1;exitDx=0;exitDy=0;entryX=0.5;entryY=0;entryDx=0;entryDy=0;" edge="1" parent="1" source="sErci1Iy1_mk4MTC0A7w-26" target="sErci1Iy1_mk4MTC0A7w-25">
          <mxGeometry relative="1" as="geometry" />
        </mxCell>
        <mxCell id="sErci1Iy1_mk4MTC0A7w-26" value="tmp_car_fc_s_fr_desvios" style="rounded=0;whiteSpace=wrap;html=1;fontSize=10;fillColor=#f8cecc;strokeColor=#b85450;" vertex="1" parent="1">
          <mxGeometry x="380" y="80" width="130" height="50" as="geometry" />
        </mxCell>
        <mxCell id="sErci1Iy1_mk4MTC0A7w-43" style="edgeStyle=orthogonalEdgeStyle;rounded=0;orthogonalLoop=1;jettySize=auto;html=1;exitX=0.5;exitY=1;exitDx=0;exitDy=0;entryX=0.5;entryY=0;entryDx=0;entryDy=0;" edge="1" parent="1" source="sErci1Iy1_mk4MTC0A7w-30" target="sErci1Iy1_mk4MTC0A7w-42">
          <mxGeometry relative="1" as="geometry" />
        </mxCell>
        <mxCell id="sErci1Iy1_mk4MTC0A7w-30" value="car_fc_d_fr_desvios&amp;nbsp;" style="rounded=0;whiteSpace=wrap;html=1;fontSize=10;fillColor=#f8cecc;strokeColor=#b85450;" vertex="1" parent="1">
          <mxGeometry x="385" y="350" width="120" height="50" as="geometry" />
        </mxCell>
        <mxCell id="sErci1Iy1_mk4MTC0A7w-34" style="edgeStyle=orthogonalEdgeStyle;rounded=0;orthogonalLoop=1;jettySize=auto;html=1;exitX=1;exitY=0.5;exitDx=0;exitDy=0;entryX=0.5;entryY=0;entryDx=0;entryDy=0;" edge="1" parent="1" source="sErci1Iy1_mk4MTC0A7w-33" target="sErci1Iy1_mk4MTC0A7w-30">
          <mxGeometry relative="1" as="geometry" />
        </mxCell>
        <mxCell id="sErci1Iy1_mk4MTC0A7w-33" value="max_date_execution" style="rounded=0;whiteSpace=wrap;html=1;fontSize=10;fillColor=#f8cecc;strokeColor=#b85450;" vertex="1" parent="1">
          <mxGeometry x="265" y="270" width="120" height="50" as="geometry" />
        </mxCell>
        <mxCell id="sErci1Iy1_mk4MTC0A7w-37" style="edgeStyle=orthogonalEdgeStyle;rounded=0;orthogonalLoop=1;jettySize=auto;html=1;exitX=0.5;exitY=1;exitDx=0;exitDy=0;entryX=0.5;entryY=0;entryDx=0;entryDy=0;" edge="1" parent="1" source="sErci1Iy1_mk4MTC0A7w-35" target="sErci1Iy1_mk4MTC0A7w-36">
          <mxGeometry relative="1" as="geometry" />
        </mxCell>
        <mxCell id="sErci1Iy1_mk4MTC0A7w-35" value="master_models_execution_fra" style="rounded=0;whiteSpace=wrap;html=1;fontSize=10;fillColor=#f8cecc;strokeColor=#b85450;" vertex="1" parent="1">
          <mxGeometry x="570" y="80" width="160" height="50" as="geometry" />
        </mxCell>
        <mxCell id="sErci1Iy1_mk4MTC0A7w-40" style="edgeStyle=orthogonalEdgeStyle;rounded=0;orthogonalLoop=1;jettySize=auto;html=1;exitX=0.5;exitY=1;exitDx=0;exitDy=0;entryX=0.5;entryY=0;entryDx=0;entryDy=0;" edge="1" parent="1" source="sErci1Iy1_mk4MTC0A7w-36" target="sErci1Iy1_mk4MTC0A7w-38">
          <mxGeometry relative="1" as="geometry" />
        </mxCell>
        <mxCell id="sErci1Iy1_mk4MTC0A7w-36" value="master_desvios_mes_fra" style="rounded=0;whiteSpace=wrap;html=1;fontSize=10;fillColor=#f8cecc;strokeColor=#b85450;" vertex="1" parent="1">
          <mxGeometry x="570" y="160" width="160" height="60" as="geometry" />
        </mxCell>
        <mxCell id="sErci1Iy1_mk4MTC0A7w-45" style="edgeStyle=orthogonalEdgeStyle;rounded=0;orthogonalLoop=1;jettySize=auto;html=1;exitX=0.5;exitY=1;exitDx=0;exitDy=0;entryX=0.5;entryY=0;entryDx=0;entryDy=0;" edge="1" parent="1" source="sErci1Iy1_mk4MTC0A7w-38" target="sErci1Iy1_mk4MTC0A7w-44">
          <mxGeometry relative="1" as="geometry" />
        </mxCell>
        <mxCell id="sErci1Iy1_mk4MTC0A7w-38" value="model_max_execution_model_fc_d_fr_forecast_data_informe_desvios" style="rounded=0;whiteSpace=wrap;html=1;fontSize=10;fillColor=#f8cecc;strokeColor=#b85450;" vertex="1" parent="1">
          <mxGeometry x="480" y="290" width="340" height="50" as="geometry" />
        </mxCell>
        <mxCell id="sErci1Iy1_mk4MTC0A7w-41" style="edgeStyle=orthogonalEdgeStyle;rounded=0;orthogonalLoop=1;jettySize=auto;html=1;exitX=0;exitY=0.5;exitDx=0;exitDy=0;entryX=0.5;entryY=0;entryDx=0;entryDy=0;" edge="1" parent="1" source="sErci1Iy1_mk4MTC0A7w-39" target="sErci1Iy1_mk4MTC0A7w-38">
          <mxGeometry relative="1" as="geometry" />
        </mxCell>
        <mxCell id="sErci1Iy1_mk4MTC0A7w-39" value="model_fc_d_fra_forecast" style="rounded=0;whiteSpace=wrap;html=1;fontSize=10;fillColor=#f8cecc;strokeColor=#b85450;" vertex="1" parent="1">
          <mxGeometry x="700" y="230" width="130" height="50" as="geometry" />
        </mxCell>
        <mxCell id="sErci1Iy1_mk4MTC0A7w-46" style="edgeStyle=orthogonalEdgeStyle;rounded=0;orthogonalLoop=1;jettySize=auto;html=1;exitX=1;exitY=0.5;exitDx=0;exitDy=0;entryX=0;entryY=0.5;entryDx=0;entryDy=0;" edge="1" parent="1" source="sErci1Iy1_mk4MTC0A7w-42" target="sErci1Iy1_mk4MTC0A7w-44">
          <mxGeometry relative="1" as="geometry" />
        </mxCell>
        <mxCell id="sErci1Iy1_mk4MTC0A7w-42" value="tmp_car_segment_aux_fr" style="rounded=0;whiteSpace=wrap;html=1;fontSize=10;fillColor=#f8cecc;strokeColor=#b85450;" vertex="1" parent="1">
          <mxGeometry x="385" y="430" width="120" height="50" as="geometry" />
        </mxCell>
        <mxCell id="sErci1Iy1_mk4MTC0A7w-48" style="edgeStyle=orthogonalEdgeStyle;rounded=0;orthogonalLoop=1;jettySize=auto;html=1;exitX=0.5;exitY=1;exitDx=0;exitDy=0;entryX=0.5;entryY=0;entryDx=0;entryDy=0;" edge="1" parent="1" source="sErci1Iy1_mk4MTC0A7w-44" target="sErci1Iy1_mk4MTC0A7w-47">
          <mxGeometry relative="1" as="geometry" />
        </mxCell>
        <mxCell id="sErci1Iy1_mk4MTC0A7w-44" value="desvio_diario_fr&amp;nbsp;" style="rounded=0;whiteSpace=wrap;html=1;fontSize=10;fillColor=#f8cecc;strokeColor=#b85450;" vertex="1" parent="1">
          <mxGeometry x="575" y="430" width="150" height="50" as="geometry" />
        </mxCell>
        <mxCell id="sErci1Iy1_mk4MTC0A7w-47" value="desvio_diario_fr&amp;nbsp;" style="rounded=0;whiteSpace=wrap;html=1;fontSize=10;fillColor=#f8cecc;strokeColor=#b85450;" vertex="1" parent="1">
          <mxGeometry x="575" y="530" width="150" height="50" as="geometry" />
        </mxCell>
      </root>
    </mxGraphModel>
  </diagram>
</mxfile>
